<?xml version="1.0" encoding="utf-8"?>
<!-- Generator: Adobe Illustrator 18.0.0, SVG Export Plug-In . SVG Version: 6.00 Build 0)  -->
<!DOCTYPE svg PUBLIC "-//W3C//DTD SVG 1.1//EN" "http://www.w3.org/Graphics/SVG/1.1/DTD/svg11.dtd">
<svg version="1.1" xmlns="http://www.w3.org/2000/svg" xmlns:xlink="http://www.w3.org/1999/xlink" x="0px" y="0px"
	 viewBox="0 0 1920 1080" enable-background="new 0 0 1920 1080" xml:space="preserve">
<pattern  y="1080" width="150.9" height="100.6" patternUnits="userSpaceOnUse" id="New_Pattern" viewBox="44.9 -148.3 150.9 100.6" overflow="visible">
	<g>
		<polygon fill="none" points="44.9,-148.3 195.8,-148.3 195.8,-47.7 44.9,-47.7 		"/>
		<g>
			
				<line fill="none" stroke="#B3FFFD" stroke-width="37" stroke-linecap="round" stroke-miterlimit="10" x1="169.4" y1="-177.4" x2="218.7" y2="-128.1"/>
			
				<line fill="none" stroke="#CFFFFD" stroke-width="37" stroke-linecap="round" stroke-miterlimit="10" x1="222.2" y1="-169.6" x2="171.7" y2="-119.1"/>
		</g>
		<g>
			
				<line fill="none" stroke="#B3FFFD" stroke-width="37" stroke-linecap="round" stroke-miterlimit="10" x1="94" y1="-127.1" x2="143.3" y2="-77.8"/>
			
				<line fill="none" stroke="#CFFFFD" stroke-width="37" stroke-linecap="round" stroke-miterlimit="10" x1="146.8" y1="-119.3" x2="96.3" y2="-68.8"/>
		</g>
		<g>
			
				<line fill="none" stroke="#B3FFFD" stroke-width="37" stroke-linecap="round" stroke-miterlimit="10" x1="18.5" y1="-177.4" x2="67.8" y2="-128.1"/>
			
				<line fill="none" stroke="#CFFFFD" stroke-width="37" stroke-linecap="round" stroke-miterlimit="10" x1="71.3" y1="-169.6" x2="20.8" y2="-119.1"/>
		</g>
		<g>
			
				<line fill="none" stroke="#B3FFFD" stroke-width="37" stroke-linecap="round" stroke-miterlimit="10" x1="169.4" y1="-76.8" x2="218.7" y2="-27.5"/>
			
				<line fill="none" stroke="#CFFFFD" stroke-width="37" stroke-linecap="round" stroke-miterlimit="10" x1="222.2" y1="-69" x2="171.7" y2="-18.5"/>
		</g>
		<g>
			
				<line fill="none" stroke="#B3FFFD" stroke-width="37" stroke-linecap="round" stroke-miterlimit="10" x1="18.5" y1="-76.8" x2="67.8" y2="-27.5"/>
			
				<line fill="none" stroke="#CFFFFD" stroke-width="37" stroke-linecap="round" stroke-miterlimit="10" x1="71.3" y1="-69" x2="20.8" y2="-18.5"/>
		</g>
	</g>
</pattern>
<pattern  y="1080" width="120.9" height="120.9" patternUnits="userSpaceOnUse" id="New_Pattern_2" viewBox="75.8 -213.8 120.9 120.9" overflow="visible">
	<g>
		<polygon fill="none" points="75.8,-213.8 196.7,-213.8 196.7,-92.9 75.8,-92.9 		"/>
		<g>
			<path fill="none" stroke="#A4E1FF" stroke-width="23" stroke-miterlimit="10" d="M269.2-20.5L269.2-20.5
				c-11.9,11.9-31.5,11.9-43.4,0L192.2-54c-11.9-11.9-11.9-31.5,0-43.4l0,0c11.9-11.9,31.5-11.9,43.4,0l33.6,33.6
				C281.1-52,281.1-32.4,269.2-20.5z"/>
		</g>
		<g>
			<path fill="none" stroke="#A4E1FF" stroke-width="23" stroke-miterlimit="10" d="M148.3-20.5L148.3-20.5
				c-11.9,11.9-31.5,11.9-43.4,0L71.3-54c-11.9-11.9-11.9-31.5,0-43.4l0,0c11.9-11.9,31.5-11.9,43.4,0l33.6,33.6
				C160.2-52,160.2-32.4,148.3-20.5z"/>
		</g>
		<g>
			<path fill="none" stroke="#A4E1FF" stroke-width="23" stroke-miterlimit="10" d="M269.2-141.4L269.2-141.4
				c-11.9,11.9-31.5,11.9-43.4,0L192.2-175c-11.9-11.9-11.9-31.5,0-43.4l0,0c11.9-11.9,31.5-11.9,43.4,0l33.6,33.6
				C281.1-172.9,281.1-153.3,269.2-141.4z"/>
		</g>
		<g>
			<path fill="none" stroke="#A4E1FF" stroke-width="23" stroke-miterlimit="10" d="M148.3-141.4L148.3-141.4
				c-11.9,11.9-31.5,11.9-43.4,0L71.3-175c-11.9-11.9-11.9-31.5,0-43.4l0,0c11.9-11.9,31.5-11.9,43.4,0l33.6,33.6
				C160.2-172.9,160.2-153.3,148.3-141.4z"/>
			
				<line fill="none" stroke="#A4E1FF" stroke-width="23" stroke-linecap="round" stroke-miterlimit="10" x1="132.4" y1="-157.2" x2="210.2" y2="-79.4"/>
		</g>
		<g>
			
				<line fill="none" stroke="#A4E1FF" stroke-width="23" stroke-linecap="round" stroke-miterlimit="10" x1="11.5" y1="-157.2" x2="89.3" y2="-79.4"/>
		</g>
		<g>
			
				<line fill="none" stroke="#A4E1FF" stroke-width="23" stroke-linecap="round" stroke-miterlimit="10" x1="132.4" y1="-278.2" x2="210.2" y2="-200.3"/>
		</g>
		<g>
			
				<line fill="none" stroke="#A4E1FF" stroke-width="23" stroke-linecap="round" stroke-miterlimit="10" x1="11.5" y1="-278.2" x2="89.3" y2="-200.3"/>
		</g>
	</g>
</pattern>
<g id="Layer_1" display="none">
	
		<linearGradient id="SVGID_1_" gradientUnits="userSpaceOnUse" x1="933.0859" y1="455.898" x2="1099.8651" y2="2024.3002" gradientTransform="matrix(1 0 0 -1 0 1080)">
		<stop  offset="0" style="stop-color:#00FFFF"/>
		<stop  offset="0.8843" style="stop-color:#0000FF"/>
	</linearGradient>
	<path fill="url(#SVGID_1_)" d="M1491-69c226.5,2.7,429-61.8,429-61.8v943.6c-162.1-486-646.1-42.4-1017.2-250.8
		C348.6,250.6,177.8,414.6,0,593.8V-70.8c0,0,335.4,64.3,509.8,39.8C914.8-88,1239-72,1491-69z"/>
	<circle display="inline" fill="none" stroke="#00FFFF" stroke-width="37" stroke-miterlimit="10" cx="326.5" cy="390.6" r="72.3"/>
	
		<circle display="inline" fill="none" stroke="#00FFFF" stroke-width="37" stroke-miterlimit="10" cx="1340.3" cy="318.3" r="50.3"/>
	<circle display="inline" fill="none" stroke="#00FFFF" stroke-width="37" stroke-miterlimit="10" cx="1606.4" cy="680.7" r="112"/>
	<circle display="inline" fill="none" stroke="#00FFFF" stroke-width="37" stroke-miterlimit="10" cx="603.6" cy="792.6" r="72.3"/>
	
		<circle display="inline" fill="none" stroke="#00FFFF" stroke-width="37" stroke-miterlimit="10" cx="1150.9" cy="653.1" r="50.3"/>
	<g display="inline">
		
			<line fill="none" stroke="#00FFFF" stroke-width="37" stroke-linecap="round" stroke-miterlimit="10" x1="756.2" y1="176" x2="756.2" y2="336.7"/>
		
			<line fill="none" stroke="#00FFFF" stroke-width="37" stroke-linecap="round" stroke-miterlimit="10" x1="836.6" y1="256.3" x2="675.9" y2="256.3"/>
	</g>
	<g display="inline">
		
			<line fill="none" stroke="#00FFFF" stroke-width="37" stroke-linecap="round" stroke-miterlimit="10" x1="1356" y1="766" x2="1356" y2="926.7"/>
		
			<line fill="none" stroke="#00FFFF" stroke-width="37" stroke-linecap="round" stroke-miterlimit="10" x1="1436.3" y1="846.3" x2="1275.7" y2="846.3"/>
	</g>
	<g display="inline">
		
			<line fill="none" stroke="#00FFFF" stroke-width="37" stroke-linecap="round" stroke-miterlimit="10" x1="254.2" y1="605.3" x2="254.2" y2="766"/>
		
			<line fill="none" stroke="#00FFFF" stroke-width="37" stroke-linecap="round" stroke-miterlimit="10" x1="334.5" y1="685.7" x2="173.9" y2="685.7"/>
	</g>
	<g display="inline">
		
			<line fill="none" stroke="#00FFFF" stroke-width="37" stroke-linecap="round" stroke-miterlimit="10" x1="824" y1="572.8" x2="824" y2="733.4"/>
		
			<line fill="none" stroke="#00FFFF" stroke-width="37" stroke-linecap="round" stroke-miterlimit="10" x1="904.3" y1="653.1" x2="743.7" y2="653.1"/>
	</g>
	<g display="inline">
		
			<line fill="none" stroke="#00FFFF" stroke-width="37" stroke-linecap="round" stroke-miterlimit="10" x1="1574.7" y1="95.7" x2="1574.7" y2="256.3"/>
		
			<line fill="none" stroke="#00FFFF" stroke-width="37" stroke-linecap="round" stroke-miterlimit="10" x1="1655.1" y1="176" x2="1494.4" y2="176"/>
	</g>
	<g display="inline">
		
			<line fill="none" stroke="#00FFFF" stroke-width="37" stroke-linecap="round" stroke-miterlimit="10" x1="108" y1="129.7" x2="108" y2="290.3"/>
		
			<line fill="none" stroke="#00FFFF" stroke-width="37" stroke-linecap="round" stroke-miterlimit="10" x1="188.3" y1="210" x2="27.7" y2="210"/>
	</g>
	<g display="inline">
		
			<line fill="none" stroke="#00FFFF" stroke-width="37" stroke-linecap="round" stroke-miterlimit="10" x1="1420.6" y1="442.1" x2="1420.6" y2="602.8"/>
		
			<line fill="none" stroke="#00FFFF" stroke-width="37" stroke-linecap="round" stroke-miterlimit="10" x1="1501" y1="522.5" x2="1340.3" y2="522.5"/>
	</g>
	<g display="inline">
		
			<line fill="none" stroke="#00FFFF" stroke-width="37" stroke-linecap="round" stroke-miterlimit="10" x1="932" y1="256.3" x2="932" y2="417"/>
		
			<line fill="none" stroke="#00FFFF" stroke-width="37" stroke-linecap="round" stroke-miterlimit="10" x1="1012.3" y1="336.7" x2="851.7" y2="336.7"/>
	</g>
	<g display="inline">
		
			<line fill="none" stroke="#00FFFF" stroke-width="37" stroke-linecap="round" stroke-miterlimit="10" x1="326.5" y1="749.3" x2="326.5" y2="910"/>
		
			<line fill="none" stroke="#00FFFF" stroke-width="37" stroke-linecap="round" stroke-miterlimit="10" x1="406.8" y1="829.7" x2="246.2" y2="829.7"/>
	</g>
</g>
<g id="Layer_2" display="none">
	<g display="inline">
		
			<line fill="none" stroke="#00FFFF" stroke-width="37" stroke-linecap="round" stroke-miterlimit="10" x1="765.7" y1="614.9" x2="879.3" y2="728.5"/>
		
			<line fill="none" stroke="#00FFFF" stroke-width="37" stroke-linecap="round" stroke-miterlimit="10" x1="879.3" y1="614.9" x2="765.7" y2="728.5"/>
	</g>
	<g display="inline">
		<path fill="none" stroke="#A4E1FF" stroke-width="23" stroke-miterlimit="10" d="M586.5,278.6L586.5,278.6
			c-11.9,11.9-31.5,11.9-43.4,0L509.5,245c-11.9-11.9-11.9-31.5,0-43.4l0,0c11.9-11.9,31.5-11.9,43.4,0l33.6,33.6
			C598.4,247.1,598.4,266.6,586.5,278.6z"/>
		
			<line fill="none" stroke="#A4E1FF" stroke-width="23" stroke-linecap="round" stroke-miterlimit="10" x1="570.7" y1="262.8" x2="648.5" y2="340.6"/>
	</g>
</g>
<g id="Layer_3">
	<rect fill="url(#New_Pattern)" width="1920" height="1080"/>
</g>
<g id="Layer_4" display="none">
	<rect display="inline" opacity="0.75" fill="url(#New_Pattern_2)" width="1920" height="1080"/>
</g>
</svg>
