<?xml version="1.0" encoding="utf-8"?>
<!-- Generator: Adobe Illustrator 18.0.0, SVG Export Plug-In . SVG Version: 6.00 Build 0)  -->
<!DOCTYPE svg PUBLIC "-//W3C//DTD SVG 1.1//EN" "http://www.w3.org/Graphics/SVG/1.1/DTD/svg11.dtd">
<svg version="1.1" id="Layer_1" xmlns="http://www.w3.org/2000/svg" xmlns:xlink="http://www.w3.org/1999/xlink" x="0px" y="0px"
	 viewBox="0 0 800 300" enable-background="new 0 0 800 300" xml:space="preserve">
<linearGradient id="SVGID_1_" gradientUnits="userSpaceOnUse" x1="49" y1="150" x2="267" y2="150">
	<stop  offset="0" style="stop-color:#00FFFF"/>
	<stop  offset="1" style="stop-color:#0000FF"/>
</linearGradient>
<polyline fill="none" stroke="url(#SVGID_1_)" stroke-width="8" stroke-linecap="round" stroke-linejoin="round" stroke-miterlimit="10" points="
	63.6,69 53,69 53,135.7 76.8,135.7 76.8,115.3 101,115.3 101,184.7 76.8,184.7 76.8,164.3 53,164.3 53,231 215,231 215,164.3 
	238.8,164.3 238.8,184.7 263,184.7 263,115.3 238.8,115.3 238.8,135.7 215,135.7 215,69 74.5,69 "/>
<rect x="450.5" y="19.3" fill="none" width="331.5" height="99.3"/>
<text transform="matrix(1 0 0 1 450.5 48.7824)" display="none"><tspan x="0" y="0" display="inline" fill="none" stroke="#0000FF" stroke-linecap="round" stroke-linejoin="round" stroke-miterlimit="10" font-family="'Moon-Light'" font-size="42">transactions </tspan><tspan x="0" y="50.4" display="inline" fill="none" stroke="#0000FF" stroke-linecap="round" stroke-linejoin="round" stroke-miterlimit="10" font-family="'Moon-Light'" font-size="42">hash</tspan></text>
<g>
	<path fill="none" stroke="#0000FF" stroke-linecap="round" stroke-linejoin="round" stroke-miterlimit="10" d="M463.3,191.1
		c2.4,0,4.4,0.8,6.1,2.4c1.7,1.6,2.5,3.4,2.5,5.6c0,2.1-0.8,4-2.4,5.5c-1.6,1.5-3.5,2.4-5.8,2.5c-0.1,0-0.1,0-0.2,0h-0.2
		c0,0-0.1,0-0.1,0c0,0,0,0-0.1,0h-8.1v12.2c0,0.3-0.1,0.6-0.4,0.9c-0.2,0.2-0.5,0.4-0.9,0.4s-0.6-0.1-0.9-0.4
		c-0.2-0.2-0.4-0.5-0.4-0.9v-27c0-0.3,0.1-0.6,0.4-0.9c0.2-0.2,0.5-0.4,0.9-0.4H463.3z M463.5,204.7c1.7,0,3.1-0.6,4.3-1.7
		c1.2-1.1,1.8-2.4,1.8-3.9c0-1.5-0.6-2.8-1.8-3.9s-2.7-1.6-4.4-1.6h-8.1v11.1H463.5z"/>
	<path fill="none" stroke="#0000FF" stroke-linecap="round" stroke-linejoin="round" stroke-miterlimit="10" d="M488.6,191.2
		c2.4,0,4.4,0.8,6.1,2.3c1.7,1.5,2.5,3.4,2.5,5.6c0,1.9-0.7,3.7-2.1,5.1c-1.3,1.5-3,2.4-5.1,2.7l5.8,11.9c0.2,0.3,0.2,0.6,0.1,0.9
		s-0.3,0.5-0.6,0.7c-0.2,0.1-0.3,0.1-0.5,0.1c-0.5,0-0.9-0.2-1.1-0.7l-6.3-12.9h-6.8v12.1c0,0.3-0.1,0.6-0.4,0.9
		c-0.2,0.2-0.5,0.3-0.9,0.3c-0.3,0-0.6-0.1-0.9-0.3c-0.2-0.2-0.3-0.5-0.3-0.9v-26.7c0-0.3,0.1-0.6,0.3-0.9c0.2-0.2,0.5-0.3,0.9-0.3
		H488.6z M494.8,199.1c0-1.5-0.6-2.8-1.8-3.9c-1.2-1.1-2.7-1.6-4.3-1.6h-8.1v11h8.2c1.7,0,3.1-0.6,4.2-1.6
		C494.2,201.9,494.8,200.6,494.8,199.1z"/>
	<path fill="none" stroke="#0000FF" stroke-linecap="round" stroke-linejoin="round" stroke-miterlimit="10" d="M504.9,220.6
		c-0.3,0-0.6-0.1-0.9-0.4c-0.2-0.2-0.4-0.5-0.4-0.9v-27c0-0.3,0.1-0.6,0.4-0.9c0.2-0.3,0.5-0.4,0.9-0.4l16.3,0
		c0.3,0,0.6,0.1,0.9,0.4c0.2,0.2,0.4,0.5,0.4,0.9c0,0.3-0.1,0.6-0.4,0.9c-0.2,0.2-0.5,0.3-0.9,0.3l-15.1,0v11h11.3
		c0.3,0,0.6,0.1,0.9,0.4c0.2,0.2,0.4,0.5,0.4,0.9s-0.1,0.6-0.4,0.9c-0.2,0.2-0.5,0.4-0.9,0.4h-11.3v11h15.1c0.3,0,0.6,0.1,0.9,0.4
		c0.2,0.2,0.4,0.5,0.4,0.9s-0.1,0.6-0.4,0.9c-0.2,0.2-0.5,0.4-0.9,0.4H504.9z"/>
	<path fill="none" stroke="#0000FF" stroke-linecap="round" stroke-linejoin="round" stroke-miterlimit="10" d="M547.1,191.2
		c0.3,0.1,0.5,0.3,0.7,0.6c0.1,0.3,0.2,0.6,0,0.9l-9.5,27c0,0,0,0,0,0.1c0,0,0,0,0,0.1c0,0.1-0.1,0.1-0.1,0.1c0,0.1,0,0.1,0,0
		c0,0.1-0.1,0.1-0.1,0.2c0,0,0,0,0,0c0,0-0.1,0.1-0.1,0.1c0,0-0.1,0-0.1,0c0,0-0.1,0.1-0.1,0.1h0l0,0c0,0,0,0,0,0s-0.1,0-0.1,0
		c-0.1,0-0.1,0-0.1,0c-0.1,0-0.1,0-0.2,0c-0.1,0-0.1,0-0.2,0c0,0,0,0-0.1,0c-0.1,0-0.1,0-0.1,0c0,0,0,0,0,0l0,0h0
		c-0.1,0-0.1-0.1-0.2-0.1c0,0,0,0-0.1,0c0,0-0.1-0.1-0.1-0.1c0,0-0.1-0.1,0,0c-0.1-0.1-0.1-0.1-0.1-0.2l0,0v0c0,0-0.1-0.1-0.1-0.1
		c0,0,0,0,0-0.1c0-0.1,0-0.1,0-0.1l-9.5-27c-0.1-0.3-0.1-0.6,0-0.9c0.2-0.3,0.4-0.5,0.7-0.6c0.3-0.1,0.6-0.1,0.9,0.1
		c0.3,0.1,0.5,0.4,0.6,0.7l8.3,23.7l8.3-23.7c0.1-0.3,0.3-0.6,0.6-0.7c0.3-0.2,0.5-0.2,0.5-0.2S546.8,191.1,547.1,191.2z"/>
	<path fill="none" stroke="#0000FF" stroke-linecap="round" stroke-linejoin="round" stroke-miterlimit="10" d="M556.1,219.3
		c0,0.3-0.1,0.6-0.4,0.9c-0.2,0.2-0.5,0.4-0.9,0.4s-0.6-0.1-0.9-0.4c-0.2-0.2-0.4-0.5-0.4-0.9v-26.9c0-0.3,0.1-0.6,0.4-0.9
		c0.2-0.2,0.5-0.4,0.9-0.4s0.6,0.1,0.9,0.4c0.2,0.2,0.4,0.5,0.4,0.9V219.3z"/>
	<path fill="none" stroke="#0000FF" stroke-linecap="round" stroke-linejoin="round" stroke-miterlimit="10" d="M577.2,220.6
		c-4.1,0-7.5-1.4-10.4-4.3s-4.3-6.3-4.3-10.4s1.4-7.5,4.3-10.4s6.3-4.3,10.4-4.3s7.5,1.4,10.4,4.3s4.3,6.3,4.3,10.4
		s-1.4,7.5-4.3,10.4S581.2,220.6,577.2,220.6z M577.2,193.6c-3.4,0-6.3,1.2-8.7,3.6c-2.4,2.4-3.6,5.3-3.6,8.7s1.2,6.3,3.6,8.7
		s5.3,3.6,8.7,3.6s6.3-1.2,8.7-3.6c2.4-2.4,3.6-5.3,3.6-8.7s-1.2-6.3-3.6-8.7C583.4,194.8,580.5,193.6,577.2,193.6z"/>
	<path fill="none" stroke="#0000FF" stroke-linecap="round" stroke-linejoin="round" stroke-miterlimit="10" d="M617.2,191.2
		c0.3,0,0.6,0.1,0.9,0.3c0.2,0.2,0.3,0.5,0.3,0.9v18.1c0,2.8-1,5.1-3,7.1s-4.3,3-7.1,3s-5.1-1-7.1-3s-3-4.3-3-7.1v-18.1
		c0-0.3,0.1-0.6,0.3-0.9s0.5-0.3,0.9-0.3c0.3,0,0.6,0.1,0.8,0.3s0.3,0.5,0.3,0.9v18.1c0,2.1,0.8,3.9,2.3,5.4
		c1.5,1.5,3.3,2.3,5.4,2.3c2.1,0,3.9-0.8,5.4-2.3c1.5-1.5,2.3-3.3,2.3-5.4v-18.1c0-0.3,0.1-0.6,0.3-0.9S616.9,191.2,617.2,191.2z"/>
	<path fill="none" stroke="#0000FF" stroke-linecap="round" stroke-linejoin="round" stroke-miterlimit="10" d="M634.7,207.1
		c-3.3,0-5.8-1-7.4-2.7c-1.3-1.4-2-3.1-1.9-4.9c0.1-2.3,1-4.3,2.8-5.9c1.8-1.6,3.8-2.4,6.3-2.4c2.2,0,4.1,0.5,5.8,1.4
		c2,1.1,3.3,2.6,3.9,4.7c0.1,0.3,0,0.6-0.1,0.9c-0.2,0.3-0.4,0.5-0.8,0.6c-0.3,0.1-0.6,0.1-0.9-0.1c-0.3-0.2-0.5-0.4-0.6-0.7
		c-0.4-1.4-1.3-2.5-2.9-3.2c-1.3-0.6-2.8-0.9-4.4-0.9c-1.8,0-3.3,0.6-4.6,1.7s-2,2.6-2.1,4.2c-0.1,1.2,0.4,2.2,1.2,3.1
		c1.2,1.3,3.1,1.9,5.7,2c0.3,0,0.6,0.1,0.9,0.4c0.2,0.2,0.3,0.5,0.3,0.9c0,0.3-0.1,0.6-0.4,0.8C635.3,206.9,635,207.1,634.7,207.1
		L634.7,207.1z M629.3,219.2c-2-1.1-3.3-2.6-3.9-4.7c-0.1-0.3,0-0.6,0.1-0.9c0.2-0.3,0.4-0.5,0.8-0.6c0.3-0.1,0.6,0,0.9,0.1
		c0.3,0.2,0.5,0.4,0.6,0.7c0.4,1.4,1.3,2.5,2.9,3.3c1.3,0.6,2.8,0.9,4.4,0.9c1.8,0,3.3-0.6,4.6-1.7s2-2.5,2.1-4.2
		c0.1-1.2-0.4-2.2-1.2-3.2c-1.2-1.3-3.1-1.9-5.7-2c-0.3,0-0.6-0.1-0.9-0.4s-0.3-0.5-0.3-0.9c0-0.3,0.1-0.6,0.4-0.9
		c0.2-0.2,0.5-0.3,0.9-0.3c3.3,0.1,5.8,1,7.4,2.7c1.3,1.4,2,3,1.9,4.9c-0.1,2.3-1,4.3-2.8,5.9c-1.8,1.6-3.8,2.4-6.3,2.4
		C632.9,220.6,631,220.1,629.3,219.2z"/>
	<path fill="none" stroke="#0000FF" stroke-linecap="round" stroke-linejoin="round" stroke-miterlimit="10" d="M453.9,271
		c-0.3,0-0.6-0.1-0.9-0.4c-0.2-0.2-0.4-0.5-0.4-0.9v-26.9c0-0.3,0.1-0.6,0.3-0.9c0.2-0.2,0.5-0.4,0.9-0.4l9.5,0
		c2.4,0,4.5,0.8,6.1,2.3c1.7,1.5,2.5,3.4,2.5,5.6c0,1.4-0.3,2.6-1,3.8c-0.7,1.2-1.6,2.1-2.7,2.9c1.3,0.7,2.4,1.6,3.1,2.8
		c0.8,1.2,1.2,2.6,1.2,4c0,2.2-0.8,4.1-2.5,5.6c-1.7,1.6-3.7,2.4-6.1,2.4H453.9z M455.2,255.1l8.2,0c1.7,0,3.2-0.6,4.4-1.7
		s1.8-2.4,1.8-4c0-1.5-0.6-2.8-1.8-3.9c-1.2-1-2.7-1.6-4.4-1.6l-8.2,0V255.1z M455.2,268.5h8.8c1.7,0,3.2-0.5,4.4-1.6
		c1.2-1.1,1.8-2.4,1.8-3.9s-0.6-2.8-1.8-3.9c-1.2-1.1-2.6-1.6-4.4-1.6c-0.1,0-0.1,0-0.2,0c-0.1,0-0.3,0-0.4,0h-8.2V268.5z"/>
	<path fill="none" stroke="#0000FF" stroke-linecap="round" stroke-linejoin="round" stroke-miterlimit="10" d="M481.3,241.6
		c0.3,0,0.6,0.1,0.9,0.4c0.2,0.2,0.3,0.5,0.3,0.9v25.7h13.3c0.3,0,0.6,0.1,0.9,0.3c0.2,0.2,0.4,0.5,0.4,0.9c0,0.3-0.1,0.6-0.4,0.9
		c-0.2,0.2-0.5,0.3-0.9,0.3h-14.5c-0.3,0-0.6-0.1-0.9-0.3c-0.2-0.2-0.3-0.5-0.3-0.9v-26.9c0-0.3,0.1-0.6,0.3-0.9
		C480.7,241.7,481,241.6,481.3,241.6z"/>
	<path fill="none" stroke="#0000FF" stroke-linecap="round" stroke-linejoin="round" stroke-miterlimit="10" d="M514.9,271
		c-4.1,0-7.5-1.4-10.4-4.3s-4.3-6.3-4.3-10.4s1.4-7.5,4.3-10.4s6.3-4.3,10.4-4.3s7.5,1.4,10.4,4.3s4.3,6.3,4.3,10.4
		s-1.4,7.5-4.3,10.4S519,271,514.9,271z M514.9,244c-3.4,0-6.3,1.2-8.7,3.6c-2.4,2.4-3.6,5.3-3.6,8.7s1.2,6.3,3.6,8.7
		s5.3,3.6,8.7,3.6s6.3-1.2,8.7-3.6c2.4-2.4,3.6-5.3,3.6-8.7s-1.2-6.3-3.6-8.7C521.2,245.2,518.3,244,514.9,244z"/>
	<path fill="none" stroke="#0000FF" stroke-linecap="round" stroke-linejoin="round" stroke-miterlimit="10" d="M549.6,271
		c-4.1,0-7.5-1.4-10.4-4.3c-2.9-2.9-4.3-6.3-4.3-10.4c0-4.1,1.4-7.5,4.3-10.4c2.9-2.9,6.3-4.3,10.4-4.3c3.3,0,6.3,1,9,3.1
		c0.3,0.2,0.4,0.5,0.5,0.8s0,0.6-0.2,0.9c-0.2,0.3-0.5,0.4-0.8,0.5c-0.3,0.1-0.6,0-0.9-0.2c-2.2-1.7-4.7-2.5-7.5-2.5
		c-3.4,0-6.3,1.2-8.7,3.6s-3.6,5.3-3.6,8.7c0,3.4,1.2,6.3,3.6,8.7s5.3,3.6,8.7,3.6c3.2,0,5.9-1.1,8.3-3.2c0.2-0.2,0.5-0.3,0.9-0.3
		s0.6,0.2,0.9,0.4c0.2,0.2,0.3,0.5,0.3,0.9s-0.2,0.6-0.4,0.9C556.7,269.7,553.4,271,549.6,271z"/>
	<path fill="none" stroke="#0000FF" stroke-linecap="round" stroke-linejoin="round" stroke-miterlimit="10" d="M567.3,270.8
		c-0.3,0-0.6-0.1-0.9-0.4c-0.2-0.2-0.3-0.5-0.3-0.9v-26.8c0-0.3,0.1-0.6,0.3-0.9c0.2-0.2,0.5-0.3,0.9-0.3c0.3,0,0.6,0.1,0.9,0.3
		c0.2,0.2,0.4,0.5,0.4,0.9v15.4l15.4-16.2c0.2-0.2,0.5-0.4,0.8-0.4c0.3,0,0.6,0.1,0.9,0.3s0.4,0.5,0.4,0.8c0,0.3-0.1,0.6-0.3,0.9
		l-11.8,12.4l12.2,12.8c0.2,0.2,0.3,0.5,0.3,0.9c0,0.3-0.1,0.6-0.4,0.9c-0.2,0.2-0.5,0.3-0.8,0.3c-0.3,0-0.6-0.1-0.9-0.4l-12.1-12.8
		l-3.7,3.9v7.8c0,0.3-0.1,0.6-0.4,0.9C567.9,270.6,567.6,270.8,567.3,270.8z"/>
	<path fill="none" stroke="#0000FF" stroke-linecap="round" stroke-linejoin="round" stroke-miterlimit="10" d="M623,271
		c-0.3,0-0.6-0.1-0.9-0.4c-0.2-0.2-0.3-0.5-0.3-0.9v-12.2H605v12.2c0,0.3-0.1,0.6-0.3,0.9c-0.2,0.2-0.5,0.4-0.9,0.4
		s-0.6-0.1-0.9-0.4c-0.2-0.2-0.4-0.5-0.4-0.9v-26.9c0-0.3,0.1-0.6,0.4-0.9c0.2-0.2,0.5-0.4,0.9-0.4s0.6,0.1,0.9,0.4
		c0.2,0.2,0.3,0.5,0.3,0.9V255h16.8v-12.2c0-0.3,0.1-0.6,0.3-0.9c0.2-0.2,0.5-0.4,0.9-0.4s0.6,0.1,0.9,0.4c0.2,0.2,0.4,0.5,0.4,0.9
		v26.9c0,0.3-0.1,0.6-0.4,0.9C623.6,270.8,623.3,271,623,271z"/>
	<path fill="none" stroke="#0000FF" stroke-linecap="round" stroke-linejoin="round" stroke-miterlimit="10" d="M631.1,270.9
		c-0.3-0.1-0.5-0.3-0.7-0.7c-0.1-0.3-0.1-0.6,0-0.9l2.9-6.9v0l8.3-20c0-0.1,0.1-0.1,0.1-0.2l0.1-0.1c0-0.1,0.1-0.1,0.1-0.1
		s0,0,0.1-0.1c0.1-0.1,0.1-0.1,0.1-0.1c0.1-0.1,0.3-0.2,0.4-0.2h0.1c0.1,0,0.1,0,0.1,0s0.1,0,0.1,0c0.1,0,0.1,0,0.1,0
		c0.2,0,0.3,0.1,0.5,0.2l0.1,0.1c0.1,0.1,0.1,0.1,0.1,0.1c0,0,0,0,0.1,0.1c0.1,0.1,0.1,0.1,0.1,0.1c0,0.1,0.1,0.2,0.1,0.2l8.3,20v0
		l2.9,6.9c0.1,0.3,0.1,0.6,0,0.9c-0.1,0.3-0.3,0.5-0.7,0.7c-0.2,0.1-0.3,0.1-0.5,0.1c-0.5,0-0.9-0.3-1.1-0.8l-2.5-6.1h-15l-2.5,6.1
		c-0.2,0.5-0.6,0.8-1.1,0.8c-0.2,0-0.2,0-0.2,0S631.2,270.9,631.1,270.9z M649.2,261.6l-6.5-15.6l-6.5,15.6H649.2z"/>
	<path fill="none" stroke="#0000FF" stroke-linecap="round" stroke-linejoin="round" stroke-miterlimit="10" d="M668.7,257.5
		c-3.3,0-5.8-1-7.4-2.7c-1.3-1.4-2-3.1-1.9-4.9c0.1-2.3,1-4.3,2.8-5.9c1.8-1.6,3.8-2.4,6.3-2.4c2.2,0,4.1,0.5,5.8,1.4
		c2,1.1,3.3,2.6,3.9,4.7c0.1,0.3,0,0.6-0.1,0.9c-0.2,0.3-0.4,0.5-0.8,0.6c-0.3,0.1-0.6,0.1-0.9-0.1c-0.3-0.2-0.5-0.4-0.6-0.7
		c-0.4-1.4-1.3-2.5-2.9-3.2c-1.3-0.6-2.8-0.9-4.4-0.9c-1.8,0-3.3,0.6-4.6,1.7s-2,2.6-2.1,4.2c-0.1,1.2,0.4,2.2,1.2,3.1
		c1.2,1.3,3.1,1.9,5.7,2c0.3,0,0.6,0.1,0.9,0.4c0.2,0.2,0.3,0.5,0.3,0.9c0,0.3-0.1,0.6-0.4,0.8C669.3,257.3,669,257.5,668.7,257.5
		L668.7,257.5z M663.3,269.6c-2-1.1-3.3-2.6-3.9-4.7c-0.1-0.3,0-0.6,0.1-0.9c0.2-0.3,0.4-0.5,0.8-0.6c0.3-0.1,0.6,0,0.9,0.1
		c0.3,0.2,0.5,0.4,0.6,0.7c0.4,1.4,1.3,2.5,2.9,3.3c1.3,0.6,2.8,0.9,4.4,0.9c1.8,0,3.3-0.6,4.6-1.7s2-2.5,2.1-4.2
		c0.1-1.2-0.4-2.2-1.2-3.2c-1.2-1.3-3.1-1.9-5.7-2c-0.3,0-0.6-0.1-0.9-0.4s-0.3-0.5-0.3-0.9c0-0.3,0.1-0.6,0.4-0.9
		c0.2-0.2,0.5-0.3,0.9-0.3c3.3,0.1,5.8,1,7.4,2.7c1.3,1.4,2,3,1.9,4.9c-0.1,2.3-1,4.3-2.8,5.9c-1.8,1.6-3.8,2.4-6.3,2.4
		C666.9,271,665,270.5,663.3,269.6z"/>
	<path fill="none" stroke="#0000FF" stroke-linecap="round" stroke-linejoin="round" stroke-miterlimit="10" d="M705.7,271
		c-0.3,0-0.6-0.1-0.9-0.4c-0.2-0.2-0.3-0.5-0.3-0.9v-12.2h-16.8v12.2c0,0.3-0.1,0.6-0.3,0.9c-0.2,0.2-0.5,0.4-0.9,0.4
		s-0.6-0.1-0.9-0.4c-0.2-0.2-0.4-0.5-0.4-0.9v-26.9c0-0.3,0.1-0.6,0.4-0.9c0.2-0.2,0.5-0.4,0.9-0.4s0.6,0.1,0.9,0.4
		c0.2,0.2,0.3,0.5,0.3,0.9V255h16.8v-12.2c0-0.3,0.1-0.6,0.3-0.9c0.2-0.2,0.5-0.4,0.9-0.4s0.6,0.1,0.9,0.4c0.2,0.2,0.4,0.5,0.4,0.9
		v26.9c0,0.3-0.1,0.6-0.4,0.9C706.3,270.8,706,271,705.7,271z"/>
</g>
<polyline fill="none" stroke="#94D9F7" stroke-width="4" stroke-linecap="round" stroke-linejoin="round" stroke-miterlimit="10" points="
	429.7,33.7 205,33.7 150.7,88 150.7,101 "/>
<polyline fill="none" stroke="#94D9F7" stroke-width="4" stroke-linecap="round" stroke-linejoin="round" stroke-miterlimit="10" points="
	150.7,200.3 150.7,210.3 196.2,255.8 429.7,255.8 "/>
<rect x="450.5" y="19.3" fill="none" width="331.5" height="99.3"/>
<text transform="matrix(1 0 0 1 450.5 48.7824)" display="none"><tspan x="0" y="0" display="inline" fill="none" stroke="#0000FF" stroke-linecap="round" stroke-linejoin="round" stroke-miterlimit="10" font-family="'Moon-Light'" font-size="42">transactions </tspan><tspan x="0" y="50.4" display="inline" fill="none" stroke="#0000FF" stroke-linecap="round" stroke-linejoin="round" stroke-miterlimit="10" font-family="'Moon-Light'" font-size="42">hash</tspan></text>
<g>
	<path fill="none" stroke="#0000FF" stroke-linecap="round" stroke-linejoin="round" stroke-miterlimit="10" d="M460.5,21.8h-8.1
		c-0.3,0-0.6-0.1-0.9-0.3c-0.2-0.2-0.3-0.5-0.3-0.9s0.1-0.6,0.3-0.9c0.2-0.2,0.5-0.4,0.9-0.4h18.6c0.3,0,0.6,0.1,0.9,0.4
		c0.2,0.2,0.4,0.5,0.4,0.9s-0.1,0.6-0.4,0.9c-0.2,0.2-0.5,0.3-0.9,0.3H463v25.7c0,0.3-0.1,0.6-0.3,0.9c-0.2,0.2-0.5,0.3-0.9,0.3
		c-0.3,0-0.6-0.1-0.9-0.3c-0.2-0.2-0.3-0.5-0.3-0.9V21.8z"/>
	<path fill="none" stroke="#0000FF" stroke-linecap="round" stroke-linejoin="round" stroke-miterlimit="10" d="M487.4,19.4
		c2.4,0,4.4,0.8,6.1,2.3c1.7,1.5,2.5,3.4,2.5,5.6c0,1.9-0.7,3.7-2.1,5.1c-1.3,1.5-3,2.4-5.1,2.7l5.8,11.9c0.2,0.3,0.2,0.6,0.1,0.9
		s-0.3,0.5-0.6,0.7c-0.2,0.1-0.3,0.1-0.5,0.1c-0.5,0-0.9-0.2-1.1-0.7l-6.3-12.9h-6.8v12.1c0,0.3-0.1,0.6-0.4,0.9
		c-0.2,0.2-0.5,0.3-0.9,0.3c-0.3,0-0.6-0.1-0.9-0.3c-0.2-0.2-0.3-0.5-0.3-0.9V20.6c0-0.3,0.1-0.6,0.3-0.9c0.2-0.2,0.5-0.3,0.9-0.3
		H487.4z M493.5,27.3c0-1.5-0.6-2.8-1.8-3.9c-1.2-1.1-2.7-1.6-4.3-1.6h-8.1v11h8.2c1.7,0,3.1-0.6,4.2-1.6
		C493,30.1,493.5,28.8,493.5,27.3z"/>
	<path fill="none" stroke="#0000FF" stroke-linecap="round" stroke-linejoin="round" stroke-miterlimit="10" d="M501.5,48.7
		c-0.3-0.1-0.5-0.3-0.7-0.7c-0.1-0.3-0.1-0.6,0-0.9l2.9-6.9v0l8.3-20c0-0.1,0.1-0.1,0.1-0.2l0.1-0.1c0-0.1,0.1-0.1,0.1-0.1
		s0,0,0.1-0.1c0.1-0.1,0.1-0.1,0.1-0.1c0.1-0.1,0.3-0.2,0.4-0.2h0.1c0.1,0,0.1,0,0.1,0s0.1,0,0.1,0c0.1,0,0.1,0,0.1,0
		c0.2,0,0.3,0.1,0.5,0.2l0.1,0.1c0.1,0.1,0.1,0.1,0.1,0.1c0,0,0,0,0.1,0.1c0.1,0.1,0.1,0.1,0.1,0.1c0,0.1,0.1,0.2,0.1,0.2l8.3,20v0
		l2.9,6.9c0.1,0.3,0.1,0.6,0,0.9c-0.1,0.3-0.3,0.5-0.7,0.7c-0.2,0.1-0.3,0.1-0.5,0.1c-0.5,0-0.9-0.3-1.1-0.8l-2.5-6.1h-15l-2.5,6.1
		c-0.2,0.5-0.6,0.8-1.1,0.8c-0.2,0-0.2,0-0.2,0S501.7,48.7,501.5,48.7z M519.6,39.5l-6.5-15.6l-6.5,15.6H519.6z"/>
	<path fill="none" stroke="#0000FF" stroke-linecap="round" stroke-linejoin="round" stroke-miterlimit="10" d="M552.1,48.4
		L552.1,48.4L552.1,48.4l-18.8-24.2v23.4c0,0.3-0.1,0.6-0.4,0.9c-0.2,0.2-0.5,0.4-0.9,0.4s-0.6-0.1-0.9-0.4
		c-0.2-0.2-0.4-0.5-0.4-0.9v-27c0-0.6,0.3-1,0.8-1.2c0.6-0.2,1-0.1,1.4,0.4L551.8,44V20.5c0-0.3,0.1-0.6,0.3-0.9
		c0.2-0.2,0.5-0.4,0.9-0.4c0.3,0,0.6,0.1,0.9,0.4c0.2,0.2,0.3,0.5,0.3,0.9v27c0,0,0,0,0,0.1c0,0,0,0.1,0,0.1c0,0,0,0.1,0,0.1
		c0,0.1,0,0.1,0,0.1s0,0.1,0,0.1s0,0.1-0.1,0.1c0,0,0,0.1-0.1,0.1s-0.1,0.1-0.1,0.1c0,0,0,0-0.1,0.1c-0.1,0.1-0.1,0.1-0.1,0
		c0,0,0,0,0,0c0,0,0,0-0.1,0c0,0-0.1,0-0.1,0.1c0,0-0.1,0-0.1,0c0,0-0.1,0-0.1,0c0,0-0.1,0-0.1,0c-0.1,0-0.2,0-0.2,0
		c-0.1,0-0.2,0-0.2,0l-0.1,0c-0.1,0-0.1,0-0.2-0.1c0,0,0,0-0.1-0.1c-0.1,0-0.1-0.1-0.1-0.1c0,0,0,0-0.1-0.1
		C552.1,48.4,552.1,48.4,552.1,48.4C552.1,48.4,552.1,48.4,552.1,48.4z"/>
	<path fill="none" stroke="#0000FF" stroke-linecap="round" stroke-linejoin="round" stroke-miterlimit="10" d="M570.3,35.3
		c-3.3,0-5.8-1-7.4-2.7c-1.3-1.4-2-3.1-1.9-4.9c0.1-2.3,1-4.3,2.8-5.9c1.8-1.6,3.8-2.4,6.3-2.4c2.2,0,4.1,0.5,5.8,1.4
		c2,1.1,3.3,2.6,3.9,4.7c0.1,0.3,0,0.6-0.1,0.9c-0.2,0.3-0.4,0.5-0.8,0.6c-0.3,0.1-0.6,0.1-0.9-0.1c-0.3-0.2-0.5-0.4-0.6-0.7
		c-0.4-1.4-1.3-2.5-2.9-3.2c-1.3-0.6-2.8-0.9-4.4-0.9c-1.8,0-3.3,0.6-4.6,1.7s-2,2.6-2.1,4.2c-0.1,1.2,0.4,2.2,1.2,3.1
		c1.2,1.3,3.1,1.9,5.7,2c0.3,0,0.6,0.1,0.9,0.4c0.2,0.2,0.3,0.5,0.3,0.9c0,0.3-0.1,0.6-0.4,0.8C571,35.2,570.7,35.3,570.3,35.3
		L570.3,35.3z M564.9,47.4c-2-1.1-3.3-2.6-3.9-4.7c-0.1-0.3,0-0.6,0.1-0.9c0.2-0.3,0.4-0.5,0.8-0.6c0.3-0.1,0.6,0,0.9,0.1
		c0.3,0.2,0.5,0.4,0.6,0.7c0.4,1.4,1.3,2.5,2.9,3.3c1.3,0.6,2.8,0.9,4.4,0.9c1.8,0,3.3-0.6,4.6-1.7s2-2.5,2.1-4.2
		c0.1-1.2-0.4-2.2-1.2-3.2c-1.2-1.3-3.1-1.9-5.7-2c-0.3,0-0.6-0.1-0.9-0.4s-0.3-0.5-0.3-0.9c0-0.3,0.1-0.6,0.4-0.9
		c0.2-0.2,0.5-0.3,0.9-0.3c3.3,0.1,5.8,1,7.4,2.7c1.3,1.4,2,3,1.9,4.9c-0.1,2.3-1,4.3-2.8,5.9c-1.8,1.6-3.8,2.4-6.3,2.4
		C568.5,48.8,566.6,48.3,564.9,47.4z"/>
	<path fill="none" stroke="#0000FF" stroke-linecap="round" stroke-linejoin="round" stroke-miterlimit="10" d="M585.8,48.7
		c-0.3-0.1-0.5-0.3-0.7-0.7c-0.1-0.3-0.1-0.6,0-0.9l2.9-6.9v0l8.3-20c0-0.1,0.1-0.1,0.1-0.2l0.1-0.1c0-0.1,0.1-0.1,0.1-0.1
		s0,0,0.1-0.1c0.1-0.1,0.1-0.1,0.1-0.1c0.1-0.1,0.3-0.2,0.4-0.2h0.1c0.1,0,0.1,0,0.1,0s0.1,0,0.1,0c0.1,0,0.1,0,0.1,0
		c0.2,0,0.3,0.1,0.5,0.2l0.1,0.1c0.1,0.1,0.1,0.1,0.1,0.1c0,0,0,0,0.1,0.1c0.1,0.1,0.1,0.1,0.1,0.1c0,0.1,0.1,0.2,0.1,0.2l8.3,20v0
		l2.9,6.9c0.1,0.3,0.1,0.6,0,0.9c-0.1,0.3-0.3,0.5-0.7,0.7c-0.2,0.1-0.3,0.1-0.5,0.1c-0.5,0-0.9-0.3-1.1-0.8l-2.5-6.1h-15l-2.5,6.1
		c-0.2,0.5-0.6,0.8-1.1,0.8c-0.2,0-0.2,0-0.2,0S585.9,48.7,585.8,48.7z M603.9,39.5l-6.5-15.6l-6.5,15.6H603.9z"/>
	<path fill="none" stroke="#0000FF" stroke-linecap="round" stroke-linejoin="round" stroke-miterlimit="10" d="M628.1,48.8
		c-4.1,0-7.5-1.4-10.4-4.3c-2.9-2.9-4.3-6.3-4.3-10.4c0-4.1,1.4-7.5,4.3-10.4c2.9-2.9,6.3-4.3,10.4-4.3c3.3,0,6.3,1,9,3.1
		c0.3,0.2,0.4,0.5,0.5,0.8s0,0.6-0.2,0.9c-0.2,0.3-0.5,0.4-0.8,0.5c-0.3,0.1-0.6,0-0.9-0.2c-2.2-1.7-4.7-2.5-7.5-2.5
		c-3.4,0-6.3,1.2-8.7,3.6s-3.6,5.3-3.6,8.7c0,3.4,1.2,6.3,3.6,8.7s5.3,3.6,8.7,3.6c3.2,0,5.9-1.1,8.3-3.2c0.2-0.2,0.5-0.3,0.9-0.3
		s0.6,0.2,0.9,0.4c0.2,0.2,0.3,0.5,0.3,0.9s-0.2,0.6-0.4,0.9C635.2,47.5,631.9,48.8,628.1,48.8z"/>
	<path fill="none" stroke="#0000FF" stroke-linecap="round" stroke-linejoin="round" stroke-miterlimit="10" d="M650.9,21.8h-8.1
		c-0.3,0-0.6-0.1-0.9-0.3c-0.2-0.2-0.3-0.5-0.3-0.9s0.1-0.6,0.3-0.9c0.2-0.2,0.5-0.4,0.9-0.4h18.6c0.3,0,0.6,0.1,0.9,0.4
		c0.2,0.2,0.4,0.5,0.4,0.9s-0.1,0.6-0.4,0.9c-0.2,0.2-0.5,0.3-0.9,0.3h-8.1v25.7c0,0.3-0.1,0.6-0.3,0.9c-0.2,0.2-0.5,0.3-0.9,0.3
		c-0.3,0-0.6-0.1-0.9-0.3c-0.2-0.2-0.3-0.5-0.3-0.9V21.8z"/>
	<path fill="none" stroke="#0000FF" stroke-linecap="round" stroke-linejoin="round" stroke-miterlimit="10" d="M669.8,47.6
		c0,0.3-0.1,0.6-0.4,0.9c-0.2,0.2-0.5,0.4-0.9,0.4s-0.6-0.1-0.9-0.4c-0.2-0.2-0.4-0.5-0.4-0.9V20.7c0-0.3,0.1-0.6,0.4-0.9
		c0.2-0.2,0.5-0.4,0.9-0.4s0.6,0.1,0.9,0.4c0.2,0.2,0.4,0.5,0.4,0.9V47.6z"/>
	<path fill="none" stroke="#0000FF" stroke-linecap="round" stroke-linejoin="round" stroke-miterlimit="10" d="M690.9,48.8
		c-4.1,0-7.5-1.4-10.4-4.3s-4.3-6.3-4.3-10.4s1.4-7.5,4.3-10.4s6.3-4.3,10.4-4.3s7.5,1.4,10.4,4.3s4.3,6.3,4.3,10.4
		s-1.4,7.5-4.3,10.4S695,48.8,690.9,48.8z M690.9,21.8c-3.4,0-6.3,1.2-8.7,3.6c-2.4,2.4-3.6,5.3-3.6,8.7s1.2,6.3,3.6,8.7
		s5.3,3.6,8.7,3.6s6.3-1.2,8.7-3.6c2.4-2.4,3.6-5.3,3.6-8.7s-1.2-6.3-3.6-8.7C697.2,23,694.3,21.8,690.9,21.8z"/>
	<path fill="none" stroke="#0000FF" stroke-linecap="round" stroke-linejoin="round" stroke-miterlimit="10" d="M733.8,48.4
		L733.8,48.4L733.8,48.4L715,24.1v23.4c0,0.3-0.1,0.6-0.4,0.9c-0.2,0.2-0.5,0.4-0.9,0.4s-0.6-0.1-0.9-0.4c-0.2-0.2-0.4-0.5-0.4-0.9
		v-27c0-0.6,0.3-1,0.8-1.2c0.6-0.2,1-0.1,1.4,0.4L733.5,44V20.5c0-0.3,0.1-0.6,0.3-0.9c0.2-0.2,0.5-0.4,0.9-0.4
		c0.3,0,0.6,0.1,0.9,0.4c0.2,0.2,0.3,0.5,0.3,0.9v27c0,0,0,0,0,0.1c0,0,0,0.1,0,0.1c0,0,0,0.1,0,0.1c0,0.1,0,0.1,0,0.1s0,0.1,0,0.1
		s0,0.1-0.1,0.1c0,0,0,0.1-0.1,0.1s-0.1,0.1-0.1,0.1c0,0,0,0-0.1,0.1c-0.1,0.1-0.1,0.1-0.1,0c0,0,0,0,0,0c0,0,0,0-0.1,0
		c0,0-0.1,0-0.1,0.1c0,0-0.1,0-0.1,0c0,0-0.1,0-0.1,0c0,0-0.1,0-0.1,0c-0.1,0-0.2,0-0.2,0c-0.1,0-0.2,0-0.2,0l-0.1,0
		c-0.1,0-0.1,0-0.2-0.1c0,0,0,0-0.1-0.1c-0.1,0-0.1-0.1-0.1-0.1c0,0,0,0-0.1-0.1C733.9,48.4,733.9,48.4,733.8,48.4
		C733.9,48.4,733.9,48.4,733.8,48.4z"/>
	<path fill="none" stroke="#0000FF" stroke-linecap="round" stroke-linejoin="round" stroke-miterlimit="10" d="M752.1,35.3
		c-3.3,0-5.8-1-7.4-2.7c-1.3-1.4-2-3.1-1.9-4.9c0.1-2.3,1-4.3,2.8-5.9c1.8-1.6,3.8-2.4,6.3-2.4c2.2,0,4.1,0.5,5.8,1.4
		c2,1.1,3.3,2.6,3.9,4.7c0.1,0.3,0,0.6-0.1,0.9c-0.2,0.3-0.4,0.5-0.8,0.6c-0.3,0.1-0.6,0.1-0.9-0.1c-0.3-0.2-0.5-0.4-0.6-0.7
		c-0.4-1.4-1.3-2.5-2.9-3.2c-1.3-0.6-2.8-0.9-4.4-0.9c-1.8,0-3.3,0.6-4.6,1.7s-2,2.6-2.1,4.2c-0.1,1.2,0.4,2.2,1.2,3.1
		c1.2,1.3,3.1,1.9,5.7,2c0.3,0,0.6,0.1,0.9,0.4c0.2,0.2,0.3,0.5,0.3,0.9c0,0.3-0.1,0.6-0.4,0.8C752.7,35.2,752.4,35.3,752.1,35.3
		L752.1,35.3z M746.7,47.4c-2-1.1-3.3-2.6-3.9-4.7c-0.1-0.3,0-0.6,0.1-0.9c0.2-0.3,0.4-0.5,0.8-0.6c0.3-0.1,0.6,0,0.9,0.1
		c0.3,0.2,0.5,0.4,0.6,0.7c0.4,1.4,1.3,2.5,2.9,3.3c1.3,0.6,2.8,0.9,4.4,0.9c1.8,0,3.3-0.6,4.6-1.7s2-2.5,2.1-4.2
		c0.1-1.2-0.4-2.2-1.2-3.2c-1.2-1.3-3.1-1.9-5.7-2c-0.3,0-0.6-0.1-0.9-0.4s-0.3-0.5-0.3-0.9c0-0.3,0.1-0.6,0.4-0.9
		c0.2-0.2,0.5-0.3,0.9-0.3c3.3,0.1,5.8,1,7.4,2.7c1.3,1.4,2,3,1.9,4.9c-0.1,2.3-1,4.3-2.8,5.9c-1.8,1.6-3.8,2.4-6.3,2.4
		C750.3,48.8,748.4,48.3,746.7,47.4z"/>
	<path fill="none" stroke="#0000FF" stroke-linecap="round" stroke-linejoin="round" stroke-miterlimit="10" d="M474.6,99.2
		c-0.3,0-0.6-0.1-0.9-0.4c-0.2-0.2-0.3-0.5-0.3-0.9V85.7h-16.8V98c0,0.3-0.1,0.6-0.3,0.9c-0.2,0.2-0.5,0.4-0.9,0.4s-0.6-0.1-0.9-0.4
		c-0.2-0.2-0.4-0.5-0.4-0.9V71c0-0.3,0.1-0.6,0.4-0.9c0.2-0.2,0.5-0.4,0.9-0.4s0.6,0.1,0.9,0.4c0.2,0.2,0.3,0.5,0.3,0.9v12.2h16.8
		V71c0-0.3,0.1-0.6,0.3-0.9c0.2-0.2,0.5-0.4,0.9-0.4s0.6,0.1,0.9,0.4c0.2,0.2,0.4,0.5,0.4,0.9V98c0,0.3-0.1,0.6-0.4,0.9
		C475.2,99.1,474.9,99.2,474.6,99.2z"/>
	<path fill="none" stroke="#0000FF" stroke-linecap="round" stroke-linejoin="round" stroke-miterlimit="10" d="M482.7,99.1
		c-0.3-0.1-0.5-0.3-0.7-0.7c-0.1-0.3-0.1-0.6,0-0.9l2.9-6.9v0l8.3-20c0-0.1,0.1-0.1,0.1-0.2l0.1-0.1c0-0.1,0.1-0.1,0.1-0.1
		s0,0,0.1-0.1c0.1-0.1,0.1-0.1,0.1-0.1c0.1-0.1,0.3-0.2,0.4-0.2h0.1c0.1,0,0.1,0,0.1,0s0.1,0,0.1,0c0.1,0,0.1,0,0.1,0
		c0.2,0,0.3,0.1,0.5,0.2l0.1,0.1c0.1,0.1,0.1,0.1,0.1,0.1c0,0,0,0,0.1,0.1c0.1,0.1,0.1,0.1,0.1,0.1c0,0.1,0.1,0.2,0.1,0.2l8.3,20v0
		l2.9,6.9c0.1,0.3,0.1,0.6,0,0.9c-0.1,0.3-0.3,0.5-0.7,0.7c-0.2,0.1-0.3,0.1-0.5,0.1c-0.5,0-0.9-0.3-1.1-0.8l-2.5-6.1h-15l-2.5,6.1
		c-0.2,0.5-0.6,0.8-1.1,0.8c-0.2,0-0.2,0-0.2,0S482.8,99.1,482.7,99.1z M500.8,89.9l-6.5-15.6l-6.5,15.6H500.8z"/>
	<path fill="none" stroke="#0000FF" stroke-linecap="round" stroke-linejoin="round" stroke-miterlimit="10" d="M520.3,85.7
		c-3.3,0-5.8-1-7.4-2.7c-1.3-1.4-2-3.1-1.9-4.9c0.1-2.3,1-4.3,2.8-5.9c1.8-1.6,3.8-2.4,6.3-2.4c2.2,0,4.1,0.5,5.8,1.4
		c2,1.1,3.3,2.6,3.9,4.7c0.1,0.3,0,0.6-0.1,0.9c-0.2,0.3-0.4,0.5-0.8,0.6c-0.3,0.1-0.6,0.1-0.9-0.1c-0.3-0.2-0.5-0.4-0.6-0.7
		c-0.4-1.4-1.3-2.5-2.9-3.2c-1.3-0.6-2.8-0.9-4.4-0.9c-1.8,0-3.3,0.6-4.6,1.7s-2,2.6-2.1,4.2c-0.1,1.2,0.4,2.2,1.2,3.1
		c1.2,1.3,3.1,1.9,5.7,2c0.3,0,0.6,0.1,0.9,0.4c0.2,0.2,0.3,0.5,0.3,0.9c0,0.3-0.1,0.6-0.4,0.8C520.9,85.6,520.6,85.7,520.3,85.7
		L520.3,85.7z M514.9,97.8c-2-1.1-3.3-2.6-3.9-4.7c-0.1-0.3,0-0.6,0.1-0.9c0.2-0.3,0.4-0.5,0.8-0.6c0.3-0.1,0.6,0,0.9,0.1
		c0.3,0.2,0.5,0.4,0.6,0.7c0.4,1.4,1.3,2.5,2.9,3.3c1.3,0.6,2.8,0.9,4.4,0.9c1.8,0,3.3-0.6,4.6-1.7s2-2.5,2.1-4.2
		c0.1-1.2-0.4-2.2-1.2-3.2c-1.2-1.3-3.1-1.9-5.7-2c-0.3,0-0.6-0.1-0.9-0.4s-0.3-0.5-0.3-0.9c0-0.3,0.1-0.6,0.4-0.9
		c0.2-0.2,0.5-0.3,0.9-0.3c3.3,0.1,5.8,1,7.4,2.7c1.3,1.4,2,3,1.9,4.9c-0.1,2.3-1,4.3-2.8,5.9c-1.8,1.6-3.8,2.4-6.3,2.4
		C518.5,99.2,516.6,98.7,514.9,97.8z"/>
	<path fill="none" stroke="#0000FF" stroke-linecap="round" stroke-linejoin="round" stroke-miterlimit="10" d="M557.3,99.2
		c-0.3,0-0.6-0.1-0.9-0.4c-0.2-0.2-0.3-0.5-0.3-0.9V85.7h-16.8V98c0,0.3-0.1,0.6-0.3,0.9c-0.2,0.2-0.5,0.4-0.9,0.4s-0.6-0.1-0.9-0.4
		c-0.2-0.2-0.4-0.5-0.4-0.9V71c0-0.3,0.1-0.6,0.4-0.9c0.2-0.2,0.5-0.4,0.9-0.4s0.6,0.1,0.9,0.4c0.2,0.2,0.3,0.5,0.3,0.9v12.2H556V71
		c0-0.3,0.1-0.6,0.3-0.9c0.2-0.2,0.5-0.4,0.9-0.4s0.6,0.1,0.9,0.4c0.2,0.2,0.4,0.5,0.4,0.9V98c0,0.3-0.1,0.6-0.4,0.9
		C557.9,99.1,557.6,99.2,557.3,99.2z"/>
</g>
</svg>
