<?xml version="1.0" encoding="utf-8"?>
<!-- Generator: Adobe Illustrator 18.0.0, SVG Export Plug-In . SVG Version: 6.00 Build 0)  -->
<!DOCTYPE svg PUBLIC "-//W3C//DTD SVG 1.1//EN" "http://www.w3.org/Graphics/SVG/1.1/DTD/svg11.dtd">
<svg version="1.1" id="Layer_1" xmlns="http://www.w3.org/2000/svg" xmlns:xlink="http://www.w3.org/1999/xlink" x="0px" y="0px"
	 viewBox="0 0 1920 1080" enable-background="new 0 0 1920 1080" xml:space="preserve">
<linearGradient id="SVGID_1_" gradientUnits="userSpaceOnUse" x1="933.0888" y1="624.1023" x2="1099.868" y2="-944.2999">
	<stop  offset="0" style="stop-color:#00FFFF"/>
	<stop  offset="0.8843" style="stop-color:#0000FF"/>
</linearGradient>
<path display="none" fill="url(#SVGID_1_)" d="M1491-69c226.5,2.7,429-61.8,429-61.8v943.6c-162.1-486-646.1-42.4-1017.2-250.8
	C348.6,250.6,177.8,414.6,0,593.8V-70.8c0,0,335.4,64.3,509.8,39.8C914.8-88,1239-72,1491-69z"/>
<ellipse fill="none" stroke="#00FFFF" stroke-width="37" stroke-miterlimit="10" cx="311.5" cy="390.6" rx="57.3" ry="72.3"/>
<ellipse fill="none" stroke="#00FFFF" stroke-width="37" stroke-miterlimit="10" cx="1402.4" cy="318.3" rx="112.5" ry="50.3"/>
<ellipse fill="none" stroke="#00FFFF" stroke-width="37" stroke-miterlimit="10" cx="1540.1" cy="680.7" rx="178.2" ry="112"/>
<ellipse fill="none" stroke="#00FFFF" stroke-width="37" stroke-miterlimit="10" cx="603.6" cy="769.6" rx="72.3" ry="49.3"/>
<ellipse fill="none" stroke="#00FFFF" stroke-width="37" stroke-miterlimit="10" cx="1142.7" cy="653.1" rx="42.1" ry="50.3"/>
</svg>
