<?xml version="1.0" encoding="utf-8"?>
<!-- Generator: Adobe Illustrator 18.0.0, SVG Export Plug-In . SVG Version: 6.00 Build 0)  -->
<!DOCTYPE svg PUBLIC "-//W3C//DTD SVG 1.1//EN" "http://www.w3.org/Graphics/SVG/1.1/DTD/svg11.dtd">
<svg version="1.1" id="Layer_1" xmlns="http://www.w3.org/2000/svg" xmlns:xlink="http://www.w3.org/1999/xlink" x="0px" y="0px"
	 viewBox="0 0 1920 1080" enable-background="new 0 0 1920 1080" xml:space="preserve">
<linearGradient id="SVGID_1_" gradientUnits="userSpaceOnUse" x1="928.808" y1="713.8645" x2="1113.0863" y2="-1019.1003">
	<stop  offset="0" style="stop-color:#00FFFF"/>
	<stop  offset="0.8843" style="stop-color:#0000FF"/>
</linearGradient>
<path fill="url(#SVGID_1_)" d="M1491-69c226.5,2.7,429-61.8,429-61.8V911.9c-36.8-210-699-20.9-1017.2-349.9
	C460.9,105.1,18.1,351.7,0,593.8V-70.8c0,0,335.4,64.3,509.8,39.8C914.8-88,1239-72,1491-69z"/>
<ellipse display="none" fill="none" stroke="#00FFFF" stroke-width="37" stroke-miterlimit="10" cx="311.5" cy="390.6" rx="57.3" ry="72.3"/>
<ellipse display="none" fill="none" stroke="#00FFFF" stroke-width="37" stroke-miterlimit="10" cx="1402.4" cy="318.3" rx="112.5" ry="50.3"/>
<ellipse display="none" fill="none" stroke="#00FFFF" stroke-width="37" stroke-miterlimit="10" cx="1540.1" cy="680.7" rx="178.2" ry="112"/>
<ellipse display="none" fill="none" stroke="#00FFFF" stroke-width="37" stroke-miterlimit="10" cx="603.6" cy="769.6" rx="72.3" ry="49.3"/>
<ellipse display="none" fill="none" stroke="#00FFFF" stroke-width="37" stroke-miterlimit="10" cx="1142.7" cy="653.1" rx="42.1" ry="50.3"/>
<g>

		<line fill="none" stroke="#00FFFF" stroke-width="37" stroke-linecap="round" stroke-miterlimit="10" x1="710.3" y1="191" x2="710.3" y2="351.7"/>

		<line fill="none" stroke="#00FFFF" stroke-width="37" stroke-linecap="round" stroke-miterlimit="10" x1="790.7" y1="271.3" x2="630" y2="271.3"/>

</g>
<g>

		<line fill="none" stroke="#00FFFF" stroke-width="37" stroke-linecap="round" stroke-miterlimit="10" x1="281" y1="559" x2="281" y2="719.7"/>

		<line fill="none" stroke="#00FFFF" stroke-width="37" stroke-linecap="round" stroke-miterlimit="10" x1="361.3" y1="639.3" x2="200.7" y2="639.3"/>
</g>
<g>

		<line fill="none" stroke="#00FFFF" stroke-width="37" stroke-linecap="round" stroke-miterlimit="10" x1="1503" y1="147" x2="1503" y2="307.7"/>

		<line fill="none" stroke="#00FFFF" stroke-width="37" stroke-linecap="round" stroke-miterlimit="10" x1="1583.3" y1="227.3" x2="1422.7" y2="227.3"/>
</g>
<g>

		<line fill="none" stroke="#00FFFF" stroke-width="37" stroke-linecap="round" stroke-miterlimit="10" x1="1065" y1="-65" x2="1065" y2="95.7"/>

		<line fill="none" stroke="#00FFFF" stroke-width="37" stroke-linecap="round" stroke-miterlimit="10" x1="1145.3" y1="15.3" x2="984.7" y2="15.3"/>
</g>
<g>

		<line fill="none" stroke="#00FFFF" stroke-width="37" stroke-linecap="round" stroke-miterlimit="10" x1="259" y1="15.3" x2="259" y2="176"/>

		<line fill="none" stroke="#00FFFF" stroke-width="37" stroke-linecap="round" stroke-miterlimit="10" x1="339.3" y1="95.7" x2="178.7" y2="95.7"/>
</g>
<g>

		<line fill="none" stroke="#00FFFF" stroke-width="37" stroke-linecap="round" stroke-miterlimit="10" x1="1802.9" y1="15.3" x2="1802.9" y2="176"/>

		<line fill="none" stroke="#00FFFF" stroke-width="37" stroke-linecap="round" stroke-miterlimit="10" x1="1883.2" y1="95.7" x2="1722.6" y2="95.7"/>
</g>
<g>

		<line fill="none" stroke="#00FFFF" stroke-width="37" stroke-linecap="round" stroke-miterlimit="10" x1="1187.5" y1="415" x2="1187.5" y2="575.6"/>

		<line fill="none" stroke="#00FFFF" stroke-width="37" stroke-linecap="round" stroke-miterlimit="10" x1="1267.8" y1="495.3" x2="1107.2" y2="495.3"/>
</g>
<g>

		<line fill="none" stroke="#00FFFF" stroke-width="37" stroke-linecap="round" stroke-miterlimit="10" x1="1722.6" y1="495.3" x2="1722.6" y2="656"/>

		<line fill="none" stroke="#00FFFF" stroke-width="37" stroke-linecap="round" stroke-miterlimit="10" x1="1802.9" y1="575.6" x2="1642.2" y2="575.6"/>
</g>
</svg>
