<!--?xml version="1.0" encoding="utf-8"?-->
<!-- Generator: Adobe Illustrator 18.0.0, SVG Export Plug-In . SVG Version: 6.00 Build 0)  -->

<svg version="1.1" id="Layer_1" xmlns="http://www.w3.org/2000/svg" xmlns:xlink="http://www.w3.org/1999/xlink" x="0px" y="0px" viewBox="0 0 700 500" enable-background="new 0 0 700 500" xml:space="preserve" style="">
<linearGradient id="SVGID_1_" gradientUnits="userSpaceOnUse" x1="296.5" y1="247.4" x2="433.8704" y2="247.4">
	<stop offset="0" style="stop-color:#00FFFF"></stop>
	<stop offset="1" style="stop-color:#0000FF"></stop>
</linearGradient>
<path fill="none" stroke="url(#SVGID_1_)" stroke-width="8" stroke-linecap="round" stroke-linejoin="round" stroke-miterlimit="10" d="M307,197.5L300.5,197.5L300.5,238.6L315.2,238.6L315.2,226L330.1,226L330.1,268.8L315.2,268.8L315.2,256.2L300.5,256.2L300.5,297.3L
	400.3,297.3L400.3,256.2L415,256.2L415,268.8L429.9,268.8L429.9,226L415,226L415,238.6L400.3,238.6L400.3,197.5L318.4,197.5" class="oCBvklWj_0"></path>
<g>
	<linearGradient id="SVGID_2_" gradientUnits="userSpaceOnUse" x1="96.5618" y1="121.8333" x2="233" y2="121.8333">
		<stop offset="0" style="stop-color:#00FFFF"></stop>
		<stop offset="1" style="stop-color:#0000FF"></stop>
	</linearGradient>
	
		<path fill="none" stroke="url(#SVGID_2_)" stroke-width="8" stroke-linecap="round" stroke-linejoin="round" stroke-miterlimit="10" d="
		M212.2,204.7h-94.9c-9.2,0-16.8-7.5-16.8-16.8V78.1V55.8c0-9.2,7.5-16.8,16.8-16.8h94.9c9.2,0,16.8,7.5,16.8,16.8v132.2
		C229,197.1,221.5,204.7,212.2,204.7z" class="oCBvklWj_1"></path>
	<linearGradient id="SVGID_3_" gradientUnits="userSpaceOnUse" x1="100.052" y1="77.8572" x2="230.4405" y2="77.8572">
		<stop offset="0" style="stop-color:#00FFFF"></stop>
		<stop offset="1" style="stop-color:#0000FF"></stop>
	</linearGradient>
	
		<path fill="none" stroke="url(#SVGID_3_)" stroke-width="8" stroke-linecap="round" stroke-linejoin="round" stroke-miterlimit="10" d="M104.1,77.9L226.4,77.9" class="oCBvklWj_2"></path>
	<linearGradient id="SVGID_4_" gradientUnits="userSpaceOnUse" x1="98.1905" y1="118.1105" x2="230.4405" y2="118.1105">
		<stop offset="0" style="stop-color:#00FFFF"></stop>
		<stop offset="1" style="stop-color:#0000FF"></stop>
	</linearGradient>
	
		<path fill="none" stroke="url(#SVGID_4_)" stroke-width="8" stroke-linecap="round" stroke-linejoin="round" stroke-miterlimit="10" d="M102.2,118.1L226.4,118.1" class="oCBvklWj_3"></path>
	<linearGradient id="SVGID_5_" gradientUnits="userSpaceOnUse" x1="98.1905" y1="153.7102" x2="233" y2="153.7102">
		<stop offset="0" style="stop-color:#00FFFF"></stop>
		<stop offset="1" style="stop-color:#0000FF"></stop>
	</linearGradient>
	
		<path fill="none" stroke="url(#SVGID_5_)" stroke-width="8" stroke-linecap="round" stroke-linejoin="round" stroke-miterlimit="10" d="M102.2,153.7L229,153.7" class="oCBvklWj_4"></path>
	
		<path fill="none" stroke="#0000FF" stroke-width="8" stroke-linecap="round" stroke-linejoin="round" stroke-miterlimit="10" d="M210.6,167.9L210.6,185.8" class="oCBvklWj_5"></path>
	
		<path fill="none" stroke="#0000FF" stroke-width="8" stroke-linecap="round" stroke-linejoin="round" stroke-miterlimit="10" d="M197.7,167.9L197.7,185.8" class="oCBvklWj_6"></path>
	
		<path fill="none" stroke="#0000FF" stroke-width="8" stroke-linecap="round" stroke-linejoin="round" stroke-miterlimit="10" d="M184.6,167.9L184.6,185.8" class="oCBvklWj_7"></path>
</g>
<g>
	<linearGradient id="SVGID_6_" gradientUnits="userSpaceOnUse" x1="468.6667" y1="120.9058" x2="603.6667" y2="120.9058">
		<stop offset="0" style="stop-color:#00FFFF"></stop>
		<stop offset="1" style="stop-color:#0000FF"></stop>
	</linearGradient>
	
		<path fill="none" stroke="url(#SVGID_6_)" stroke-width="8" stroke-linecap="round" stroke-linejoin="round" stroke-miterlimit="10" d="
		M583.1,202.8h-93.9c-9.1,0-16.6-7.5-16.6-16.6V77.7V55.6c0-9.1,7.5-16.6,16.6-16.6h93.9c9.1,0,16.6,7.5,16.6,16.6v130.7
		C599.7,195.4,592.2,202.8,583.1,202.8z" class="oCBvklWj_8"></path>
	<linearGradient id="SVGID_7_" gradientUnits="userSpaceOnUse" x1="472.1177" y1="77.4221" x2="601.1359" y2="77.4221">
		<stop offset="0" style="stop-color:#00FFFF"></stop>
		<stop offset="1" style="stop-color:#0000FF"></stop>
	</linearGradient>
	
		<path fill="none" stroke="url(#SVGID_7_)" stroke-width="8" stroke-linecap="round" stroke-linejoin="round" stroke-miterlimit="10" d="M476.1,77.4L597.1,77.4" class="oCBvklWj_9"></path>
	<linearGradient id="SVGID_8_" gradientUnits="userSpaceOnUse" x1="470.2772" y1="117.2246" x2="601.1359" y2="117.2246">
		<stop offset="0" style="stop-color:#00FFFF"></stop>
		<stop offset="1" style="stop-color:#0000FF"></stop>
	</linearGradient>
	
		<path fill="none" stroke="url(#SVGID_8_)" stroke-width="8" stroke-linecap="round" stroke-linejoin="round" stroke-miterlimit="10" d="M474.3,117.2L597.1,117.2" class="oCBvklWj_10"></path>
	<linearGradient id="SVGID_9_" gradientUnits="userSpaceOnUse" x1="470.2772" y1="152.4257" x2="603.6667" y2="152.4257">
		<stop offset="0" style="stop-color:#00FFFF"></stop>
		<stop offset="1" style="stop-color:#0000FF"></stop>
	</linearGradient>
	
		<path fill="none" stroke="url(#SVGID_9_)" stroke-width="8" stroke-linecap="round" stroke-linejoin="round" stroke-miterlimit="10" d="M474.3,152.4L599.7,152.4" class="oCBvklWj_11"></path>
	
		<path fill="none" stroke="#0000FF" stroke-width="8" stroke-linecap="round" stroke-linejoin="round" stroke-miterlimit="10" d="M581.5,166.5L581.5,184.2" class="oCBvklWj_12"></path>
	
		<path fill="none" stroke="#0000FF" stroke-width="8" stroke-linecap="round" stroke-linejoin="round" stroke-miterlimit="10" d="M568.7,166.5L568.7,184.2" class="oCBvklWj_13"></path>
	
		<path fill="none" stroke="#0000FF" stroke-width="8" stroke-linecap="round" stroke-linejoin="round" stroke-miterlimit="10" d="M555.8,166.5L555.8,184.2" class="oCBvklWj_14"></path>
</g>
<g>
	<linearGradient id="SVGID_10_" gradientUnits="userSpaceOnUse" x1="95.6858" y1="380.4833" x2="232.6667" y2="380.4833">
		<stop offset="0" style="stop-color:#00FFFF"></stop>
		<stop offset="1" style="stop-color:#0000FF"></stop>
	</linearGradient>
	
		<path fill="none" stroke="url(#SVGID_10_)" stroke-width="8" stroke-linecap="round" stroke-linejoin="round" stroke-miterlimit="10" d="
		M211.8,463.7h-95.3c-9.3,0-16.8-7.6-16.8-16.8V336.6v-22.4c0-9.3,7.6-16.8,16.8-16.8h95.3c9.3,0,16.8,7.6,16.8,16.8v132.7
		C228.7,456.1,221.1,463.7,211.8,463.7z" class="oCBvklWj_15"></path>
	<linearGradient id="SVGID_11_" gradientUnits="userSpaceOnUse" x1="99.1907" y1="336.3214" x2="230.0964" y2="336.3214">
		<stop offset="0" style="stop-color:#00FFFF"></stop>
		<stop offset="1" style="stop-color:#0000FF"></stop>
	</linearGradient>
	
		<path fill="none" stroke="url(#SVGID_11_)" stroke-width="8" stroke-linecap="round" stroke-linejoin="round" stroke-miterlimit="10" d="M103.2,336.3L226.1,336.3" class="oCBvklWj_16"></path>
	<linearGradient id="SVGID_12_" gradientUnits="userSpaceOnUse" x1="97.3214" y1="376.7448" x2="230.0964" y2="376.7448">
		<stop offset="0" style="stop-color:#00FFFF"></stop>
		<stop offset="1" style="stop-color:#0000FF"></stop>
	</linearGradient>
	
		<path fill="none" stroke="url(#SVGID_12_)" stroke-width="8" stroke-linecap="round" stroke-linejoin="round" stroke-miterlimit="10" d="M101.3,376.7L226.1,376.7" class="oCBvklWj_17"></path>
	<linearGradient id="SVGID_13_" gradientUnits="userSpaceOnUse" x1="97.3214" y1="412.4949" x2="232.6667" y2="412.4949">
		<stop offset="0" style="stop-color:#00FFFF"></stop>
		<stop offset="1" style="stop-color:#0000FF"></stop>
	</linearGradient>
	
		<path fill="none" stroke="url(#SVGID_13_)" stroke-width="8" stroke-linecap="round" stroke-linejoin="round" stroke-miterlimit="10" d="M101.3,412.5L228.7,412.5" class="oCBvklWj_18"></path>
	
		<path fill="none" stroke="#0000FF" stroke-width="8" stroke-linecap="round" stroke-linejoin="round" stroke-miterlimit="10" d="M210.2,426.7L210.2,444.7" class="oCBvklWj_19"></path>
	
		<path fill="none" stroke="#0000FF" stroke-width="8" stroke-linecap="round" stroke-linejoin="round" stroke-miterlimit="10" d="M197.2,426.7L197.2,444.7" class="oCBvklWj_20"></path>
	
		<path fill="none" stroke="#0000FF" stroke-width="8" stroke-linecap="round" stroke-linejoin="round" stroke-miterlimit="10" d="M184.1,426.7L184.1,444.7" class="oCBvklWj_21"></path>
</g>
<g>
	<linearGradient id="SVGID_14_" gradientUnits="userSpaceOnUse" x1="468.3333" y1="380.9833" x2="604.5389" y2="380.9833">
		<stop offset="0" style="stop-color:#00FFFF"></stop>
		<stop offset="1" style="stop-color:#0000FF"></stop>
	</linearGradient>
	
		<path fill="none" stroke="url(#SVGID_14_)" stroke-width="8" stroke-linecap="round" stroke-linejoin="round" stroke-miterlimit="10" d="
		M583.8,463.7h-94.8c-9.2,0-16.7-7.5-16.7-16.7V337.3V315c0-9.2,7.5-16.7,16.7-16.7h94.8c9.2,0,16.7,7.5,16.7,16.7v131.9
		C600.5,456.1,593,463.7,583.8,463.7z" class="oCBvklWj_22"></path>
	<linearGradient id="SVGID_15_" gradientUnits="userSpaceOnUse" x1="471.8172" y1="337.0869" x2="601.9841" y2="337.0869">
		<stop offset="0" style="stop-color:#00FFFF"></stop>
		<stop offset="1" style="stop-color:#0000FF"></stop>
	</linearGradient>
	
		<path fill="none" stroke="url(#SVGID_15_)" stroke-width="8" stroke-linecap="round" stroke-linejoin="round" stroke-miterlimit="10" d="M475.8,337.1L598,337.1" class="oCBvklWj_23"></path>
	<linearGradient id="SVGID_16_" gradientUnits="userSpaceOnUse" x1="469.9591" y1="377.2672" x2="601.9841" y2="377.2672">
		<stop offset="0" style="stop-color:#00FFFF"></stop>
		<stop offset="1" style="stop-color:#0000FF"></stop>
	</linearGradient>
	
		<path fill="none" stroke="url(#SVGID_16_)" stroke-width="8" stroke-linecap="round" stroke-linejoin="round" stroke-miterlimit="10" d="M474,377.3L598,377.3" class="oCBvklWj_24"></path>
	<linearGradient id="SVGID_17_" gradientUnits="userSpaceOnUse" x1="469.9591" y1="412.8025" x2="604.5389" y2="412.8025">
		<stop offset="0" style="stop-color:#00FFFF"></stop>
		<stop offset="1" style="stop-color:#0000FF"></stop>
	</linearGradient>
	
		<path fill="none" stroke="url(#SVGID_17_)" stroke-width="8" stroke-linecap="round" stroke-linejoin="round" stroke-miterlimit="10" d="M474,412.8L600.5,412.8" class="oCBvklWj_25"></path>
	
		<path fill="none" stroke="#0000FF" stroke-width="8" stroke-linecap="round" stroke-linejoin="round" stroke-miterlimit="10" d="M582.2,427L582.2,444.9" class="oCBvklWj_26"></path>
	
		<path fill="none" stroke="#0000FF" stroke-width="8" stroke-linecap="round" stroke-linejoin="round" stroke-miterlimit="10" d="M569.3,427L569.3,444.9" class="oCBvklWj_27"></path>
	
		<path fill="none" stroke="#0000FF" stroke-width="8" stroke-linecap="round" stroke-linejoin="round" stroke-miterlimit="10" d="M556.2,427L556.2,444.9" class="oCBvklWj_28"></path>
</g>
<path fill="none" stroke="#0000FF" stroke-width="8" stroke-linecap="round" stroke-linejoin="round" stroke-miterlimit="10" d="
	M322,171c0,0,0-52,0-75.5c0-12.9-7.9-19.4-21.5-19.5c-9.5,0-51,0-51,0l16.8-16.8L249.5,76l15.8,17.5" class="oCBvklWj_29"></path>
<path fill="none" stroke="#0000FF" stroke-width="8" stroke-linecap="round" stroke-linejoin="round" stroke-miterlimit="10" d="
	M377,171c0,0,0-52,0-75.5c0-12.9,7.9-19.4,21.5-19.5c9.5,0,51,0,51,0l-16.8-16.8L449.5,76l-15.8,17.5" class="oCBvklWj_30"></path>
<path fill="none" stroke="#0000FF" stroke-width="8" stroke-linecap="round" stroke-linejoin="round" stroke-miterlimit="10" d="
	M377,325.6c0,0,0,52,0,75.5c0,12.9,7.9,19.4,21.5,19.5c9.5,0,51,0,51,0l-16.8,16.8l16.8-16.8l-15.8-17.5" class="oCBvklWj_31"></path>
<path fill="none" stroke="#0000FF" stroke-width="8" stroke-linecap="round" stroke-linejoin="round" stroke-miterlimit="10" d="
	M322,325.6c0,0,0,52,0,75.5c0,12.9-7.9,19.4-21.5,19.5c-9.5,0-51,0-51,0l16.8,16.8l-16.8-16.8l15.8-17.5" class="oCBvklWj_32"></path>
<linearGradient id="SVGID_18_" gradientUnits="userSpaceOnUse" x1="54.4334" y1="138.61" x2="54.4334" y2="87.0628">
	<stop offset="0" style="stop-color:#00FF00"></stop>
	<stop offset="0.1604" style="stop-color:#00FF03"></stop>
	<stop offset="0.2901" style="stop-color:#00FF0D"></stop>
	<stop offset="0.409" style="stop-color:#00FF1E"></stop>
	<stop offset="0.5216" style="stop-color:#00FF36"></stop>
	<stop offset="0.6297" style="stop-color:#00FF55"></stop>
	<stop offset="0.7345" style="stop-color:#00FF7B"></stop>
	<stop offset="0.8366" style="stop-color:#00FFA8"></stop>
	<stop offset="0.934" style="stop-color:#00FFDB"></stop>
	<stop offset="0.9952" style="stop-color:#00FFFF"></stop>
</linearGradient>
<path fill="none" stroke="url(#SVGID_18_)" stroke-width="6" stroke-linecap="round" stroke-linejoin="round" stroke-miterlimit="10" d="
	M26.7,123.6c9.1,2.7,12.2,12,12.2,12s10.4-33.5,43.2-45.5" class="oCBvklWj_33"></path>
<linearGradient id="SVGID_19_" gradientUnits="userSpaceOnUse" x1="54.4334" y1="402.5183" x2="54.4334" y2="350.9712">
	<stop offset="0" style="stop-color:#00FF00"></stop>
	<stop offset="0.1604" style="stop-color:#00FF03"></stop>
	<stop offset="0.2901" style="stop-color:#00FF0D"></stop>
	<stop offset="0.409" style="stop-color:#00FF1E"></stop>
	<stop offset="0.5216" style="stop-color:#00FF36"></stop>
	<stop offset="0.6297" style="stop-color:#00FF55"></stop>
	<stop offset="0.7345" style="stop-color:#00FF7B"></stop>
	<stop offset="0.8366" style="stop-color:#00FFA8"></stop>
	<stop offset="0.934" style="stop-color:#00FFDB"></stop>
	<stop offset="0.9952" style="stop-color:#00FFFF"></stop>
</linearGradient>
<path fill="none" stroke="url(#SVGID_19_)" stroke-width="6" stroke-linecap="round" stroke-linejoin="round" stroke-miterlimit="10" d="
	M26.7,387.5c9.1,2.7,12.2,12,12.2,12S49.4,366,82.1,354" class="oCBvklWj_34"></path>
<linearGradient id="SVGID_20_" gradientUnits="userSpaceOnUse" x1="650.2249" y1="407.2319" x2="650.2249" y2="355.6848">
	<stop offset="0" style="stop-color:#00FF00"></stop>
	<stop offset="0.1604" style="stop-color:#00FF03"></stop>
	<stop offset="0.2901" style="stop-color:#00FF0D"></stop>
	<stop offset="0.409" style="stop-color:#00FF1E"></stop>
	<stop offset="0.5216" style="stop-color:#00FF36"></stop>
	<stop offset="0.6297" style="stop-color:#00FF55"></stop>
	<stop offset="0.7345" style="stop-color:#00FF7B"></stop>
	<stop offset="0.8366" style="stop-color:#00FFA8"></stop>
	<stop offset="0.934" style="stop-color:#00FFDB"></stop>
	<stop offset="0.9952" style="stop-color:#00FFFF"></stop>
</linearGradient>
<path fill="none" stroke="url(#SVGID_20_)" stroke-width="6" stroke-linecap="round" stroke-linejoin="round" stroke-miterlimit="10" d="
	M622.5,392.2c9.1,2.7,12.2,12,12.2,12s10.4-33.5,43.2-45.5" class="oCBvklWj_35"></path>
<linearGradient id="SVGID_21_" gradientUnits="userSpaceOnUse" x1="650.2249" y1="138.61" x2="650.2249" y2="87.0628">
	<stop offset="0" style="stop-color:#00FF00"></stop>
	<stop offset="0.1604" style="stop-color:#00FF03"></stop>
	<stop offset="0.2901" style="stop-color:#00FF0D"></stop>
	<stop offset="0.409" style="stop-color:#00FF1E"></stop>
	<stop offset="0.5216" style="stop-color:#00FF36"></stop>
	<stop offset="0.6297" style="stop-color:#00FF55"></stop>
	<stop offset="0.7345" style="stop-color:#00FF7B"></stop>
	<stop offset="0.8366" style="stop-color:#00FFA8"></stop>
	<stop offset="0.934" style="stop-color:#00FFDB"></stop>
	<stop offset="0.9952" style="stop-color:#00FFFF"></stop>
</linearGradient>
<path fill="none" stroke="url(#SVGID_21_)" stroke-width="6" stroke-linecap="round" stroke-linejoin="round" stroke-miterlimit="10" d="
	M622.5,123.6c9.1,2.7,12.2,12,12.2,12s10.4-33.5,43.2-45.5" class="oCBvklWj_36"></path>
<style data-made-with="vivus-instant">.oCBvklWj_0{stroke-dasharray:607 609;stroke-dashoffset:608;animation:oCBvklWj_draw 2000ms linear 0ms forwards;}.oCBvklWj_1{stroke-dasharray:560 562;stroke-dashoffset:561;animation:oCBvklWj_draw 2000ms linear 27ms forwards;}.oCBvklWj_2{stroke-dasharray:123 125;stroke-dashoffset:124;animation:oCBvklWj_draw 2000ms linear 55ms forwards;}.oCBvklWj_3{stroke-dasharray:125 127;stroke-dashoffset:126;animation:oCBvklWj_draw 2000ms linear 83ms forwards;}.oCBvklWj_4{stroke-dasharray:127 129;stroke-dashoffset:128;animation:oCBvklWj_draw 2000ms linear 111ms forwards;}.oCBvklWj_5{stroke-dasharray:18 20;stroke-dashoffset:19;animation:oCBvklWj_draw 2000ms linear 138ms forwards;}.oCBvklWj_6{stroke-dasharray:18 20;stroke-dashoffset:19;animation:oCBvklWj_draw 2000ms linear 166ms forwards;}.oCBvklWj_7{stroke-dasharray:18 20;stroke-dashoffset:19;animation:oCBvklWj_draw 2000ms linear 194ms forwards;}.oCBvklWj_8{stroke-dasharray:554 556;stroke-dashoffset:555;animation:oCBvklWj_draw 2000ms linear 222ms forwards;}.oCBvklWj_9{stroke-dasharray:121 123;stroke-dashoffset:122;animation:oCBvklWj_draw 2000ms linear 250ms forwards;}.oCBvklWj_10{stroke-dasharray:123 125;stroke-dashoffset:124;animation:oCBvklWj_draw 2000ms linear 277ms forwards;}.oCBvklWj_11{stroke-dasharray:126 128;stroke-dashoffset:127;animation:oCBvklWj_draw 2000ms linear 305ms forwards;}.oCBvklWj_12{stroke-dasharray:18 20;stroke-dashoffset:19;animation:oCBvklWj_draw 2000ms linear 333ms forwards;}.oCBvklWj_13{stroke-dasharray:18 20;stroke-dashoffset:19;animation:oCBvklWj_draw 2000ms linear 361ms forwards;}.oCBvklWj_14{stroke-dasharray:18 20;stroke-dashoffset:19;animation:oCBvklWj_draw 2000ms linear 388ms forwards;}.oCBvklWj_15{stroke-dasharray:562 564;stroke-dashoffset:563;animation:oCBvklWj_draw 2000ms linear 416ms forwards;}.oCBvklWj_16{stroke-dasharray:123 125;stroke-dashoffset:124;animation:oCBvklWj_draw 2000ms linear 444ms forwards;}.oCBvklWj_17{stroke-dasharray:125 127;stroke-dashoffset:126;animation:oCBvklWj_draw 2000ms linear 472ms forwards;}.oCBvklWj_18{stroke-dasharray:128 130;stroke-dashoffset:129;animation:oCBvklWj_draw 2000ms linear 500ms forwards;}.oCBvklWj_19{stroke-dasharray:18 20;stroke-dashoffset:19;animation:oCBvklWj_draw 2000ms linear 527ms forwards;}.oCBvklWj_20{stroke-dasharray:18 20;stroke-dashoffset:19;animation:oCBvklWj_draw 2000ms linear 555ms forwards;}.oCBvklWj_21{stroke-dasharray:18 20;stroke-dashoffset:19;animation:oCBvklWj_draw 2000ms linear 583ms forwards;}.oCBvklWj_22{stroke-dasharray:559 561;stroke-dashoffset:560;animation:oCBvklWj_draw 2000ms linear 611ms forwards;}.oCBvklWj_23{stroke-dasharray:123 125;stroke-dashoffset:124;animation:oCBvklWj_draw 2000ms linear 638ms forwards;}.oCBvklWj_24{stroke-dasharray:124 126;stroke-dashoffset:125;animation:oCBvklWj_draw 2000ms linear 666ms forwards;}.oCBvklWj_25{stroke-dasharray:127 129;stroke-dashoffset:128;animation:oCBvklWj_draw 2000ms linear 694ms forwards;}.oCBvklWj_26{stroke-dasharray:18 20;stroke-dashoffset:19;animation:oCBvklWj_draw 2000ms linear 722ms forwards;}.oCBvklWj_27{stroke-dasharray:18 20;stroke-dashoffset:19;animation:oCBvklWj_draw 2000ms linear 750ms forwards;}.oCBvklWj_28{stroke-dasharray:18 20;stroke-dashoffset:19;animation:oCBvklWj_draw 2000ms linear 777ms forwards;}.oCBvklWj_29{stroke-dasharray:231 233;stroke-dashoffset:232;animation:oCBvklWj_draw 2000ms linear 805ms forwards;}.oCBvklWj_30{stroke-dasharray:231 233;stroke-dashoffset:232;animation:oCBvklWj_draw 2000ms linear 833ms forwards;}.oCBvklWj_31{stroke-dasharray:231 233;stroke-dashoffset:232;animation:oCBvklWj_draw 2000ms linear 861ms forwards;}.oCBvklWj_32{stroke-dasharray:231 233;stroke-dashoffset:232;animation:oCBvklWj_draw 2000ms linear 888ms forwards;}.oCBvklWj_33{stroke-dasharray:83 85;stroke-dashoffset:84;animation:oCBvklWj_draw 2000ms linear 916ms forwards;}.oCBvklWj_34{stroke-dasharray:83 85;stroke-dashoffset:84;animation:oCBvklWj_draw 2000ms linear 944ms forwards;}.oCBvklWj_35{stroke-dasharray:83 85;stroke-dashoffset:84;animation:oCBvklWj_draw 2000ms linear 972ms forwards;}.oCBvklWj_36{stroke-dasharray:83 85;stroke-dashoffset:84;animation:oCBvklWj_draw 2000ms linear 1000ms forwards;}@keyframes oCBvklWj_draw{100%{stroke-dashoffset:0;}}@keyframes oCBvklWj_fade{0%{stroke-opacity:1;}94.44444444444444%{stroke-opacity:1;}100%{stroke-opacity:0;}}</style></svg>
