<?xml version="1.0" encoding="utf-8"?>
<!-- Generator: Adobe Illustrator 18.0.0, SVG Export Plug-In . SVG Version: 6.00 Build 0)  -->
<!DOCTYPE svg PUBLIC "-//W3C//DTD SVG 1.1//EN" "http://www.w3.org/Graphics/SVG/1.1/DTD/svg11.dtd">
<svg version="1.1" id="Layer_1" xmlns="http://www.w3.org/2000/svg" xmlns:xlink="http://www.w3.org/1999/xlink" x="0px" y="0px"
	 viewBox="0 0 700 500" enable-background="new 0 0 700 500" xml:space="preserve">
<linearGradient id="SVGID_1_" gradientUnits="userSpaceOnUse" x1="296.5" y1="247.4" x2="433.8704" y2="247.4">
	<stop  offset="0" style="stop-color:#00FFFF"/>
	<stop  offset="1" style="stop-color:#0000FF"/>
</linearGradient>
<polyline fill="none" stroke="url(#SVGID_1_)" stroke-width="8" stroke-linecap="round" stroke-linejoin="round" stroke-miterlimit="10" points="
	307,197.5 300.5,197.5 300.5,238.6 315.2,238.6 315.2,226 330.1,226 330.1,268.8 315.2,268.8 315.2,256.2 300.5,256.2 300.5,297.3 
	400.3,297.3 400.3,256.2 415,256.2 415,268.8 429.9,268.8 429.9,226 415,226 415,238.6 400.3,238.6 400.3,197.5 318.4,197.5 "/>
<g>
	<linearGradient id="SVGID_2_" gradientUnits="userSpaceOnUse" x1="96.5618" y1="121.8333" x2="233" y2="121.8333">
		<stop  offset="0" style="stop-color:#00FFFF"/>
		<stop  offset="1" style="stop-color:#0000FF"/>
	</linearGradient>
	
		<path fill="none" stroke="url(#SVGID_2_)" stroke-width="8" stroke-linecap="round" stroke-linejoin="round" stroke-miterlimit="10" d="
		M212.2,204.7h-94.9c-9.2,0-16.8-7.5-16.8-16.8V78.1V55.8c0-9.2,7.5-16.8,16.8-16.8h94.9c9.2,0,16.8,7.5,16.8,16.8v132.2
		C229,197.1,221.5,204.7,212.2,204.7z"/>
	<linearGradient id="SVGID_3_" gradientUnits="userSpaceOnUse" x1="100.052" y1="77.8572" x2="230.4405" y2="77.8572">
		<stop  offset="0" style="stop-color:#00FFFF"/>
		<stop  offset="1" style="stop-color:#0000FF"/>
	</linearGradient>
	
		<line fill="none" stroke="url(#SVGID_3_)" stroke-width="8" stroke-linecap="round" stroke-linejoin="round" stroke-miterlimit="10" x1="104.1" y1="77.9" x2="226.4" y2="77.9"/>
	<linearGradient id="SVGID_4_" gradientUnits="userSpaceOnUse" x1="98.1905" y1="118.1105" x2="230.4405" y2="118.1105">
		<stop  offset="0" style="stop-color:#00FFFF"/>
		<stop  offset="1" style="stop-color:#0000FF"/>
	</linearGradient>
	
		<line fill="none" stroke="url(#SVGID_4_)" stroke-width="8" stroke-linecap="round" stroke-linejoin="round" stroke-miterlimit="10" x1="102.2" y1="118.1" x2="226.4" y2="118.1"/>
	<linearGradient id="SVGID_5_" gradientUnits="userSpaceOnUse" x1="98.1905" y1="153.7102" x2="233" y2="153.7102">
		<stop  offset="0" style="stop-color:#00FFFF"/>
		<stop  offset="1" style="stop-color:#0000FF"/>
	</linearGradient>
	
		<line fill="none" stroke="url(#SVGID_5_)" stroke-width="8" stroke-linecap="round" stroke-linejoin="round" stroke-miterlimit="10" x1="102.2" y1="153.7" x2="229" y2="153.7"/>
	
		<line fill="none" stroke="#0000FF" stroke-width="8" stroke-linecap="round" stroke-linejoin="round" stroke-miterlimit="10" x1="210.6" y1="167.9" x2="210.6" y2="185.8"/>
	
		<line fill="none" stroke="#0000FF" stroke-width="8" stroke-linecap="round" stroke-linejoin="round" stroke-miterlimit="10" x1="197.7" y1="167.9" x2="197.7" y2="185.8"/>
	
		<line fill="none" stroke="#0000FF" stroke-width="8" stroke-linecap="round" stroke-linejoin="round" stroke-miterlimit="10" x1="184.6" y1="167.9" x2="184.6" y2="185.8"/>
</g>
<g>
	<linearGradient id="SVGID_6_" gradientUnits="userSpaceOnUse" x1="468.6667" y1="120.9058" x2="603.6667" y2="120.9058">
		<stop  offset="0" style="stop-color:#00FFFF"/>
		<stop  offset="1" style="stop-color:#0000FF"/>
	</linearGradient>
	
		<path fill="none" stroke="url(#SVGID_6_)" stroke-width="8" stroke-linecap="round" stroke-linejoin="round" stroke-miterlimit="10" d="
		M583.1,202.8h-93.9c-9.1,0-16.6-7.5-16.6-16.6V77.7V55.6c0-9.1,7.5-16.6,16.6-16.6h93.9c9.1,0,16.6,7.5,16.6,16.6v130.7
		C599.7,195.4,592.2,202.8,583.1,202.8z"/>
	<linearGradient id="SVGID_7_" gradientUnits="userSpaceOnUse" x1="472.1177" y1="77.4221" x2="601.1359" y2="77.4221">
		<stop  offset="0" style="stop-color:#00FFFF"/>
		<stop  offset="1" style="stop-color:#0000FF"/>
	</linearGradient>
	
		<line fill="none" stroke="url(#SVGID_7_)" stroke-width="8" stroke-linecap="round" stroke-linejoin="round" stroke-miterlimit="10" x1="476.1" y1="77.4" x2="597.1" y2="77.4"/>
	<linearGradient id="SVGID_8_" gradientUnits="userSpaceOnUse" x1="470.2772" y1="117.2246" x2="601.1359" y2="117.2246">
		<stop  offset="0" style="stop-color:#00FFFF"/>
		<stop  offset="1" style="stop-color:#0000FF"/>
	</linearGradient>
	
		<line fill="none" stroke="url(#SVGID_8_)" stroke-width="8" stroke-linecap="round" stroke-linejoin="round" stroke-miterlimit="10" x1="474.3" y1="117.2" x2="597.1" y2="117.2"/>
	<linearGradient id="SVGID_9_" gradientUnits="userSpaceOnUse" x1="470.2772" y1="152.4257" x2="603.6667" y2="152.4257">
		<stop  offset="0" style="stop-color:#00FFFF"/>
		<stop  offset="1" style="stop-color:#0000FF"/>
	</linearGradient>
	
		<line fill="none" stroke="url(#SVGID_9_)" stroke-width="8" stroke-linecap="round" stroke-linejoin="round" stroke-miterlimit="10" x1="474.3" y1="152.4" x2="599.7" y2="152.4"/>
	
		<line fill="none" stroke="#0000FF" stroke-width="8" stroke-linecap="round" stroke-linejoin="round" stroke-miterlimit="10" x1="581.5" y1="166.5" x2="581.5" y2="184.2"/>
	
		<line fill="none" stroke="#0000FF" stroke-width="8" stroke-linecap="round" stroke-linejoin="round" stroke-miterlimit="10" x1="568.7" y1="166.5" x2="568.7" y2="184.2"/>
	
		<line fill="none" stroke="#0000FF" stroke-width="8" stroke-linecap="round" stroke-linejoin="round" stroke-miterlimit="10" x1="555.8" y1="166.5" x2="555.8" y2="184.2"/>
</g>
<g>
	<linearGradient id="SVGID_10_" gradientUnits="userSpaceOnUse" x1="95.6858" y1="380.4833" x2="232.6667" y2="380.4833">
		<stop  offset="0" style="stop-color:#00FFFF"/>
		<stop  offset="1" style="stop-color:#0000FF"/>
	</linearGradient>
	
		<path fill="none" stroke="url(#SVGID_10_)" stroke-width="8" stroke-linecap="round" stroke-linejoin="round" stroke-miterlimit="10" d="
		M211.8,463.7h-95.3c-9.3,0-16.8-7.6-16.8-16.8V336.6v-22.4c0-9.3,7.6-16.8,16.8-16.8h95.3c9.3,0,16.8,7.6,16.8,16.8v132.7
		C228.7,456.1,221.1,463.7,211.8,463.7z"/>
	<linearGradient id="SVGID_11_" gradientUnits="userSpaceOnUse" x1="99.1907" y1="336.3214" x2="230.0964" y2="336.3214">
		<stop  offset="0" style="stop-color:#00FFFF"/>
		<stop  offset="1" style="stop-color:#0000FF"/>
	</linearGradient>
	
		<line fill="none" stroke="url(#SVGID_11_)" stroke-width="8" stroke-linecap="round" stroke-linejoin="round" stroke-miterlimit="10" x1="103.2" y1="336.3" x2="226.1" y2="336.3"/>
	<linearGradient id="SVGID_12_" gradientUnits="userSpaceOnUse" x1="97.3214" y1="376.7448" x2="230.0964" y2="376.7448">
		<stop  offset="0" style="stop-color:#00FFFF"/>
		<stop  offset="1" style="stop-color:#0000FF"/>
	</linearGradient>
	
		<line fill="none" stroke="url(#SVGID_12_)" stroke-width="8" stroke-linecap="round" stroke-linejoin="round" stroke-miterlimit="10" x1="101.3" y1="376.7" x2="226.1" y2="376.7"/>
	<linearGradient id="SVGID_13_" gradientUnits="userSpaceOnUse" x1="97.3214" y1="412.4949" x2="232.6667" y2="412.4949">
		<stop  offset="0" style="stop-color:#00FFFF"/>
		<stop  offset="1" style="stop-color:#0000FF"/>
	</linearGradient>
	
		<line fill="none" stroke="url(#SVGID_13_)" stroke-width="8" stroke-linecap="round" stroke-linejoin="round" stroke-miterlimit="10" x1="101.3" y1="412.5" x2="228.7" y2="412.5"/>
	
		<line fill="none" stroke="#0000FF" stroke-width="8" stroke-linecap="round" stroke-linejoin="round" stroke-miterlimit="10" x1="210.2" y1="426.7" x2="210.2" y2="444.7"/>
	
		<line fill="none" stroke="#0000FF" stroke-width="8" stroke-linecap="round" stroke-linejoin="round" stroke-miterlimit="10" x1="197.2" y1="426.7" x2="197.2" y2="444.7"/>
	
		<line fill="none" stroke="#0000FF" stroke-width="8" stroke-linecap="round" stroke-linejoin="round" stroke-miterlimit="10" x1="184.1" y1="426.7" x2="184.1" y2="444.7"/>
</g>
<g>
	<linearGradient id="SVGID_14_" gradientUnits="userSpaceOnUse" x1="468.3333" y1="380.9833" x2="604.5389" y2="380.9833">
		<stop  offset="0" style="stop-color:#00FFFF"/>
		<stop  offset="1" style="stop-color:#0000FF"/>
	</linearGradient>
	
		<path fill="none" stroke="url(#SVGID_14_)" stroke-width="8" stroke-linecap="round" stroke-linejoin="round" stroke-miterlimit="10" d="
		M583.8,463.7h-94.8c-9.2,0-16.7-7.5-16.7-16.7V337.3V315c0-9.2,7.5-16.7,16.7-16.7h94.8c9.2,0,16.7,7.5,16.7,16.7v131.9
		C600.5,456.1,593,463.7,583.8,463.7z"/>
	<linearGradient id="SVGID_15_" gradientUnits="userSpaceOnUse" x1="471.8172" y1="337.0869" x2="601.9841" y2="337.0869">
		<stop  offset="0" style="stop-color:#00FFFF"/>
		<stop  offset="1" style="stop-color:#0000FF"/>
	</linearGradient>
	
		<line fill="none" stroke="url(#SVGID_15_)" stroke-width="8" stroke-linecap="round" stroke-linejoin="round" stroke-miterlimit="10" x1="475.8" y1="337.1" x2="598" y2="337.1"/>
	<linearGradient id="SVGID_16_" gradientUnits="userSpaceOnUse" x1="469.9591" y1="377.2672" x2="601.9841" y2="377.2672">
		<stop  offset="0" style="stop-color:#00FFFF"/>
		<stop  offset="1" style="stop-color:#0000FF"/>
	</linearGradient>
	
		<line fill="none" stroke="url(#SVGID_16_)" stroke-width="8" stroke-linecap="round" stroke-linejoin="round" stroke-miterlimit="10" x1="474" y1="377.3" x2="598" y2="377.3"/>
	<linearGradient id="SVGID_17_" gradientUnits="userSpaceOnUse" x1="469.9591" y1="412.8025" x2="604.5389" y2="412.8025">
		<stop  offset="0" style="stop-color:#00FFFF"/>
		<stop  offset="1" style="stop-color:#0000FF"/>
	</linearGradient>
	
		<line fill="none" stroke="url(#SVGID_17_)" stroke-width="8" stroke-linecap="round" stroke-linejoin="round" stroke-miterlimit="10" x1="474" y1="412.8" x2="600.5" y2="412.8"/>
	
		<line fill="none" stroke="#0000FF" stroke-width="8" stroke-linecap="round" stroke-linejoin="round" stroke-miterlimit="10" x1="582.2" y1="427" x2="582.2" y2="444.9"/>
	
		<line fill="none" stroke="#0000FF" stroke-width="8" stroke-linecap="round" stroke-linejoin="round" stroke-miterlimit="10" x1="569.3" y1="427" x2="569.3" y2="444.9"/>
	
		<line fill="none" stroke="#0000FF" stroke-width="8" stroke-linecap="round" stroke-linejoin="round" stroke-miterlimit="10" x1="556.2" y1="427" x2="556.2" y2="444.9"/>
</g>
<path fill="none" stroke="#0000FF" stroke-width="8" stroke-linecap="round" stroke-linejoin="round" stroke-miterlimit="10" d="
	M322,171c0,0,0-52,0-75.5c0-12.9-7.9-19.4-21.5-19.5c-9.5,0-51,0-51,0l16.8-16.8L249.5,76l15.8,17.5"/>
<path fill="none" stroke="#0000FF" stroke-width="8" stroke-linecap="round" stroke-linejoin="round" stroke-miterlimit="10" d="
	M377,171c0,0,0-52,0-75.5c0-12.9,7.9-19.4,21.5-19.5c9.5,0,51,0,51,0l-16.8-16.8L449.5,76l-15.8,17.5"/>
<path fill="none" stroke="#0000FF" stroke-width="8" stroke-linecap="round" stroke-linejoin="round" stroke-miterlimit="10" d="
	M377,325.6c0,0,0,52,0,75.5c0,12.9,7.9,19.4,21.5,19.5c9.5,0,51,0,51,0l-16.8,16.8l16.8-16.8l-15.8-17.5"/>
<path fill="none" stroke="#0000FF" stroke-width="8" stroke-linecap="round" stroke-linejoin="round" stroke-miterlimit="10" d="
	M322,325.6c0,0,0,52,0,75.5c0,12.9-7.9,19.4-21.5,19.5c-9.5,0-51,0-51,0l16.8,16.8l-16.8-16.8l15.8-17.5"/>
<linearGradient id="SVGID_18_" gradientUnits="userSpaceOnUse" x1="54.4334" y1="138.61" x2="54.4334" y2="87.0628">
	<stop  offset="0" style="stop-color:#00FF00"/>
	<stop  offset="0.1604" style="stop-color:#00FF03"/>
	<stop  offset="0.2901" style="stop-color:#00FF0D"/>
	<stop  offset="0.409" style="stop-color:#00FF1E"/>
	<stop  offset="0.5216" style="stop-color:#00FF36"/>
	<stop  offset="0.6297" style="stop-color:#00FF55"/>
	<stop  offset="0.7345" style="stop-color:#00FF7B"/>
	<stop  offset="0.8366" style="stop-color:#00FFA8"/>
	<stop  offset="0.934" style="stop-color:#00FFDB"/>
	<stop  offset="0.9952" style="stop-color:#00FFFF"/>
</linearGradient>
<path fill="none" stroke="url(#SVGID_18_)" stroke-width="6" stroke-linecap="round" stroke-linejoin="round" stroke-miterlimit="10" d="
	M26.7,123.6c9.1,2.7,12.2,12,12.2,12s10.4-33.5,43.2-45.5"/>
<linearGradient id="SVGID_19_" gradientUnits="userSpaceOnUse" x1="54.4334" y1="402.5183" x2="54.4334" y2="350.9712">
	<stop  offset="0" style="stop-color:#00FF00"/>
	<stop  offset="0.1604" style="stop-color:#00FF03"/>
	<stop  offset="0.2901" style="stop-color:#00FF0D"/>
	<stop  offset="0.409" style="stop-color:#00FF1E"/>
	<stop  offset="0.5216" style="stop-color:#00FF36"/>
	<stop  offset="0.6297" style="stop-color:#00FF55"/>
	<stop  offset="0.7345" style="stop-color:#00FF7B"/>
	<stop  offset="0.8366" style="stop-color:#00FFA8"/>
	<stop  offset="0.934" style="stop-color:#00FFDB"/>
	<stop  offset="0.9952" style="stop-color:#00FFFF"/>
</linearGradient>
<path fill="none" stroke="url(#SVGID_19_)" stroke-width="6" stroke-linecap="round" stroke-linejoin="round" stroke-miterlimit="10" d="
	M26.7,387.5c9.1,2.7,12.2,12,12.2,12S49.4,366,82.1,354"/>
<linearGradient id="SVGID_20_" gradientUnits="userSpaceOnUse" x1="650.2249" y1="407.2319" x2="650.2249" y2="355.6848">
	<stop  offset="0" style="stop-color:#00FF00"/>
	<stop  offset="0.1604" style="stop-color:#00FF03"/>
	<stop  offset="0.2901" style="stop-color:#00FF0D"/>
	<stop  offset="0.409" style="stop-color:#00FF1E"/>
	<stop  offset="0.5216" style="stop-color:#00FF36"/>
	<stop  offset="0.6297" style="stop-color:#00FF55"/>
	<stop  offset="0.7345" style="stop-color:#00FF7B"/>
	<stop  offset="0.8366" style="stop-color:#00FFA8"/>
	<stop  offset="0.934" style="stop-color:#00FFDB"/>
	<stop  offset="0.9952" style="stop-color:#00FFFF"/>
</linearGradient>
<path fill="none" stroke="url(#SVGID_20_)" stroke-width="6" stroke-linecap="round" stroke-linejoin="round" stroke-miterlimit="10" d="
	M622.5,392.2c9.1,2.7,12.2,12,12.2,12s10.4-33.5,43.2-45.5"/>
<linearGradient id="SVGID_21_" gradientUnits="userSpaceOnUse" x1="650.2249" y1="138.61" x2="650.2249" y2="87.0628">
	<stop  offset="0" style="stop-color:#00FF00"/>
	<stop  offset="0.1604" style="stop-color:#00FF03"/>
	<stop  offset="0.2901" style="stop-color:#00FF0D"/>
	<stop  offset="0.409" style="stop-color:#00FF1E"/>
	<stop  offset="0.5216" style="stop-color:#00FF36"/>
	<stop  offset="0.6297" style="stop-color:#00FF55"/>
	<stop  offset="0.7345" style="stop-color:#00FF7B"/>
	<stop  offset="0.8366" style="stop-color:#00FFA8"/>
	<stop  offset="0.934" style="stop-color:#00FFDB"/>
	<stop  offset="0.9952" style="stop-color:#00FFFF"/>
</linearGradient>
<path fill="none" stroke="url(#SVGID_21_)" stroke-width="6" stroke-linecap="round" stroke-linejoin="round" stroke-miterlimit="10" d="
	M622.5,123.6c9.1,2.7,12.2,12,12.2,12s10.4-33.5,43.2-45.5"/>
</svg>
